<?xml version="1.0" encoding="UTF-8" standalone="no"?>
<!DOCTYPE svg PUBLIC "-//W3C//DTD SVG 1.1//EN"
 "http://www.w3.org/Graphics/SVG/1.1/DTD/svg11.dtd">
<!-- Generated by graphviz version 2.28.0 (20110507.0327)
 -->
<!-- Title: G Pages: 1 -->
<svg width="273pt" height="220pt"
 viewBox="0.00 0.00 272.73 220.00" xmlns="http://www.w3.org/2000/svg" xmlns:xlink="http://www.w3.org/1999/xlink">
<g id="graph1" class="graph" transform="scale(1 1) rotate(0) translate(4 216)">
<title>G</title>
<polygon fill="white" stroke="white" points="-4,5 -4,-216 269.735,-216 269.735,5 -4,5"/>
<!-- Login* -->
<g id="node1" class="node"><title>Login*</title>
<text text-anchor="middle" x="63.7349" y="-190.3" font-family="Times New Roman,serif" font-size="14.00">Login*</text>
</g>
<!-- Aktenbearbeitung -->
<g id="node2" class="node"><title>Aktenbearbeitung</title>
<text text-anchor="middle" x="63.7349" y="-102.3" font-family="Times New Roman,serif" font-size="14.00">Aktenbearbeitung</text>
</g>
<!-- Login*&#45;&gt;Aktenbearbeitung -->
<g id="edge2" class="edge"><title>Login*&#45;&gt;Aktenbearbeitung</title>
<path fill="none" stroke="black" d="M35.6449,-184.183C23.251,-178.735 9.8942,-170.362 2.7349,-158 -3.54973,-147.148 2.30735,-137.576 12.4803,-129.742"/>
<polygon fill="black" stroke="black" points="14.5812,-132.548 20.9714,-124.097 10.7059,-126.719 14.5812,-132.548"/>
<text text-anchor="middle" x="53.7349" y="-146.3" font-family="Times New Roman,serif" font-size="14.00">1; n(91198 87072)</text>
</g>
<!-- Aktenbearbeitung&#45;&gt;Login* -->
<g id="edge4" class="edge"><title>Aktenbearbeitung&#45;&gt;Login*</title>
<path fill="none" stroke="black" d="M90.7174,-124.176C101.647,-133.441 110.491,-145.517 104.735,-158 103.02,-161.718 100.694,-165.188 98.0158,-168.385"/>
<polygon fill="black" stroke="black" points="95.286,-166.17 90.7797,-175.758 100.282,-171.073 95.286,-166.17"/>
<text text-anchor="middle" x="161.735" y="-146.3" font-family="Times New Roman,serif" font-size="14.00">0.3333; n(917213 0)</text>
</g>
<!-- Aktenbearbeitung&#45;&gt;Aktenbearbeitung -->
<g id="edge6" class="edge"><title>Aktenbearbeitung&#45;&gt;Aktenbearbeitung</title>
<path fill="none" stroke="black" d="M120.961,-113.797C131.408,-112.81 138.735,-110.211 138.735,-106 138.735,-103.302 135.728,-101.266 130.82,-99.8918"/>
<polygon fill="black" stroke="black" points="131.408,-96.4416 120.961,-98.2032 130.226,-103.341 131.408,-96.4416"/>
<text text-anchor="middle" x="201.735" y="-102.3" font-family="Times New Roman,serif" font-size="14.00">0.3333; n(13037197 0)</text>
</g>
<!-- $ -->
<g id="node7" class="node"><title>$</title>
<ellipse fill="none" stroke="black" cx="63.7349" cy="-18" rx="27" ry="18"/>
<text text-anchor="middle" x="63.7349" y="-14.3" font-family="Times New Roman,serif" font-size="14.00">$</text>
</g>
<!-- Aktenbearbeitung&#45;&gt;$ -->
<g id="edge8" class="edge"><title>Aktenbearbeitung&#45;&gt;$</title>
<path fill="none" stroke="black" d="M63.7349,-87.5966C63.7349,-75.7459 63.7349,-59.8169 63.7349,-46.2917"/>
<polygon fill="black" stroke="black" points="67.235,-46.084 63.7349,-36.084 60.235,-46.084 67.235,-46.084"/>
<text text-anchor="middle" x="82.7349" y="-58.3" font-family="Times New Roman,serif" font-size="14.00">0.3333</text>
</g>
</g>
</svg>
