<?xml version="1.0" encoding="UTF-8" standalone="no"?>
<!DOCTYPE svg PUBLIC "-//W3C//DTD SVG 1.1//EN"
 "http://www.w3.org/Graphics/SVG/1.1/DTD/svg11.dtd">
<!-- Generated by graphviz version 2.38.0 (20140413.2041)
 -->
<!-- Title: G Pages: 1 -->
<svg width="2160pt" height="124pt"
 viewBox="0.00 0.00 2160.00 123.98" xmlns="http://www.w3.org/2000/svg" xmlns:xlink="http://www.w3.org/1999/xlink">
<g id="graph0" class="graph" transform="scale(0.56872 0.56872) rotate(0) translate(4 214)">
<title>G</title>
<polygon fill="white" stroke="none" points="-4,4 -4,-214 3794,-214 3794,4 -4,4"/>
<!-- 0.01 Login* -->
<g id="node1" class="node"><title>0.01 Login*</title>
<text text-anchor="middle" x="95" y="-188.3" font-family="Times New Roman,serif" font-size="14.00">0.01 Login*</text>
</g>
<!-- 1.01 Verzeichnisgut aufnehmen -->
<g id="node2" class="node"><title>1.01 Verzeichnisgut aufnehmen</title>
<text text-anchor="middle" x="95" y="-101.3" font-family="Times New Roman,serif" font-size="14.00">1.01 Verzeichnisgut aufnehmen</text>
</g>
<!-- 0.01 Login*&#45;&gt;1.01 Verzeichnisgut aufnehmen -->
<g id="edge1" class="edge"><title>0.01 Login*&#45;&gt;1.01 Verzeichnisgut aufnehmen</title>
<path fill="none" stroke="black" d="M95,-173.799C95,-162.163 95,-146.548 95,-133.237"/>
<polygon fill="black" stroke="black" points="98.5001,-133.175 95,-123.175 91.5001,-133.175 98.5001,-133.175"/>
<text text-anchor="middle" x="176.5" y="-144.8" font-family="Times New Roman,serif" font-size="14.00">1; n(418394048 1258178722)</text>
</g>
<!-- 1.01 Verzeichnisgut aufnehmen&#45;&gt;1.01 Verzeichnisgut aufnehmen -->
<g id="edge3" class="edge"><title>1.01 Verzeichnisgut aufnehmen&#45;&gt;1.01 Verzeichnisgut aufnehmen</title>
<path fill="none" stroke="black" d="M190.216,-111.673C201.006,-110.424 208,-108.199 208,-105 208,-102.951 205.13,-101.301 200.23,-100.052"/>
<polygon fill="black" stroke="black" points="200.665,-96.5751 190.216,-98.3266 199.476,-103.473 200.665,-96.5751"/>
<text text-anchor="middle" x="304.5" y="-101.3" font-family="Times New Roman,serif" font-size="14.00">0.194; n(4146324854 5266993456)</text>
</g>
<!-- 0.01 Login -->
<g id="node19" class="node"><title>0.01 Login</title>
<ellipse fill="none" stroke="black" cx="95" cy="-18" rx="50.0912" ry="18"/>
<text text-anchor="middle" x="95" y="-14.3" font-family="Times New Roman,serif" font-size="14.00">0.01 Login</text>
</g>
<!-- 1.01 Verzeichnisgut aufnehmen&#45;&gt;0.01 Login -->
<g id="edge2" class="edge"><title>1.01 Verzeichnisgut aufnehmen&#45;&gt;0.01 Login</title>
<path fill="none" stroke="black" d="M95,-86.799C95,-75.1626 95,-59.5479 95,-46.2368"/>
<polygon fill="black" stroke="black" points="98.5001,-46.1754 95,-36.1754 91.5001,-46.1755 98.5001,-46.1754"/>
<text text-anchor="middle" x="161.5" y="-57.8" font-family="Times New Roman,serif" font-size="14.00">0.0333; n(917213832 0)</text>
</g>
<!-- $ -->
<g id="node20" class="node"><title>$</title>
<ellipse fill="none" stroke="black" cx="1933" cy="-18" rx="27" ry="18"/>
<text text-anchor="middle" x="1933" y="-14.3" font-family="Times New Roman,serif" font-size="14.00">$</text>
</g>
<!-- 1.01 Verzeichnisgut aufnehmen&#45;&gt;$ -->
<g id="edge4" class="edge"><title>1.01 Verzeichnisgut aufnehmen&#45;&gt;$</title>
<path fill="none" stroke="black" d="M190.248,-94.6112C310.189,-83.153 522.647,-64.065 705,-54 1174.48,-28.0869 1746.06,-20.8485 1895.71,-19.3381"/>
<polygon fill="black" stroke="black" points="1895.79,-22.8377 1905.75,-19.2391 1895.72,-15.838 1895.79,-22.8377"/>
<text text-anchor="middle" x="724" y="-57.8" font-family="Times New Roman,serif" font-size="14.00">0.7726</text>
</g>
<!-- 1.02 Verzeichnisgut aendern -->
<g id="node3" class="node"><title>1.02 Verzeichnisgut aendern</title>
<text text-anchor="middle" x="506" y="-101.3" font-family="Times New Roman,serif" font-size="14.00">1.02 Verzeichnisgut aendern</text>
</g>
<!-- 1.02 Verzeichnisgut aendern&#45;&gt;$ -->
<g id="edge5" class="edge"><title>1.02 Verzeichnisgut aendern&#45;&gt;$</title>
<path fill="none" stroke="black" d="M592.676,-88.1976C595.481,-87.7796 598.262,-87.3789 601,-87 749.636,-66.4348 787.28,-63.9731 937,-54 1310.62,-29.1125 1764.34,-21.2905 1895.72,-19.4665"/>
<polygon fill="black" stroke="black" points="1896.08,-22.9621 1906.03,-19.3267 1895.98,-15.9628 1896.08,-22.9621"/>
<text text-anchor="middle" x="940.5" y="-57.8" font-family="Times New Roman,serif" font-size="14.00">1</text>
</g>
<!-- 1.03 Verzeichnisgut loeschen -->
<g id="node4" class="node"><title>1.03 Verzeichnisgut loeschen</title>
<text text-anchor="middle" x="700" y="-101.3" font-family="Times New Roman,serif" font-size="14.00">1.03 Verzeichnisgut loeschen</text>
</g>
<!-- 1.03 Verzeichnisgut loeschen&#45;&gt;$ -->
<g id="edge6" class="edge"><title>1.03 Verzeichnisgut loeschen&#45;&gt;$</title>
<path fill="none" stroke="black" d="M789.535,-88.3347C792.727,-87.8688 795.889,-87.4221 799,-87 945.06,-67.1816 981.979,-64.5427 1129,-54 1423.98,-32.8471 1780.83,-22.746 1895.56,-19.8821"/>
<polygon fill="black" stroke="black" points="1895.99,-23.3728 1905.9,-19.6274 1895.82,-16.3749 1895.99,-23.3728"/>
<text text-anchor="middle" x="1132.5" y="-57.8" font-family="Times New Roman,serif" font-size="14.00">1</text>
</g>
<!-- 2.01 Klassifikation erstellen -->
<g id="node5" class="node"><title>2.01 Klassifikation erstellen</title>
<text text-anchor="middle" x="892" y="-101.3" font-family="Times New Roman,serif" font-size="14.00">2.01 Klassifikation erstellen</text>
</g>
<!-- 2.01 Klassifikation erstellen&#45;&gt;$ -->
<g id="edge7" class="edge"><title>2.01 Klassifikation erstellen&#45;&gt;$</title>
<path fill="none" stroke="black" d="M976.101,-88.3216C979.102,-87.8594 982.075,-87.417 985,-87 1336.98,-36.8161 1768.04,-22.9369 1895.71,-19.8"/>
<polygon fill="black" stroke="black" points="1896.17,-23.29 1906.09,-19.5525 1896.01,-16.292 1896.17,-23.29"/>
<text text-anchor="middle" x="1274.5" y="-57.8" font-family="Times New Roman,serif" font-size="14.00">1</text>
</g>
<!-- 2.02 Klassifikation aendern -->
<g id="node6" class="node"><title>2.02 Klassifikation aendern</title>
<text text-anchor="middle" x="1078" y="-101.3" font-family="Times New Roman,serif" font-size="14.00">2.02 Klassifikation aendern</text>
</g>
<!-- 2.02 Klassifikation aendern&#45;&gt;$ -->
<g id="edge8" class="edge"><title>2.02 Klassifikation aendern&#45;&gt;$</title>
<path fill="none" stroke="black" d="M1161.6,-88.4001C1164.77,-87.9096 1167.91,-87.4407 1171,-87 1448.08,-47.4499 1785.33,-26.9352 1895.94,-20.9167"/>
<polygon fill="black" stroke="black" points="1896.43,-24.3957 1906.22,-20.3635 1896.05,-17.4058 1896.43,-24.3957"/>
<text text-anchor="middle" x="1446.5" y="-57.8" font-family="Times New Roman,serif" font-size="14.00">1</text>
</g>
<!-- 2.03 Klassifikation loeschen -->
<g id="node7" class="node"><title>2.03 Klassifikation loeschen</title>
<text text-anchor="middle" x="1266" y="-101.3" font-family="Times New Roman,serif" font-size="14.00">2.03 Klassifikation loeschen</text>
</g>
<!-- 2.03 Klassifikation loeschen&#45;&gt;$ -->
<g id="edge9" class="edge"><title>2.03 Klassifikation loeschen&#45;&gt;$</title>
<path fill="none" stroke="black" d="M1352.18,-88.351C1355.15,-87.8834 1358.1,-87.4315 1361,-87 1562.48,-57.0236 1805.45,-31.7008 1896.34,-22.6031"/>
<polygon fill="black" stroke="black" points="1896.81,-26.0741 1906.41,-21.5994 1896.11,-19.1086 1896.81,-26.0741"/>
<text text-anchor="middle" x="1600.5" y="-57.8" font-family="Times New Roman,serif" font-size="14.00">1</text>
</g>
<!-- 3.01 Bestand aufnehmen (ohne Zusatz) -->
<g id="node8" class="node"><title>3.01 Bestand aufnehmen (ohne Zusatz)</title>
<text text-anchor="middle" x="1487" y="-101.3" font-family="Times New Roman,serif" font-size="14.00">3.01 Bestand aufnehmen (ohne Zusatz)</text>
</g>
<!-- 3.01 Bestand aufnehmen (ohne Zusatz)&#45;&gt;$ -->
<g id="edge10" class="edge"><title>3.01 Bestand aufnehmen (ohne Zusatz)&#45;&gt;$</title>
<path fill="none" stroke="black" d="M1576.45,-86.9523C1674.89,-68.1907 1828.31,-38.9525 1897.29,-25.8065"/>
<polygon fill="black" stroke="black" points="1898.05,-29.2231 1907.22,-23.9128 1896.74,-22.3469 1898.05,-29.2231"/>
<text text-anchor="middle" x="1740.5" y="-57.8" font-family="Times New Roman,serif" font-size="14.00">1</text>
</g>
<!-- 3.01 Bestand aufnehmen (mit Zusatz) -->
<g id="node9" class="node"><title>3.01 Bestand aufnehmen (mit Zusatz)</title>
<text text-anchor="middle" x="1734" y="-101.3" font-family="Times New Roman,serif" font-size="14.00">3.01 Bestand aufnehmen (mit Zusatz)</text>
</g>
<!-- 3.01 Bestand aufnehmen (mit Zusatz)&#45;&gt;$ -->
<g id="edge11" class="edge"><title>3.01 Bestand aufnehmen (mit Zusatz)&#45;&gt;$</title>
<path fill="none" stroke="black" d="M1774.27,-86.799C1811.79,-70.7718 1866.98,-47.1978 1901.42,-32.4902"/>
<polygon fill="black" stroke="black" points="1903.15,-35.5565 1910.97,-28.4098 1900.4,-29.1192 1903.15,-35.5565"/>
<text text-anchor="middle" x="1849.5" y="-57.8" font-family="Times New Roman,serif" font-size="14.00">1</text>
</g>
<!-- 3.02 Bestand aendern -->
<g id="node10" class="node"><title>3.02 Bestand aendern</title>
<text text-anchor="middle" x="1933" y="-101.3" font-family="Times New Roman,serif" font-size="14.00">3.02 Bestand aendern</text>
</g>
<!-- 3.02 Bestand aendern&#45;&gt;$ -->
<g id="edge12" class="edge"><title>3.02 Bestand aendern&#45;&gt;$</title>
<path fill="none" stroke="black" d="M1933,-86.799C1933,-75.1626 1933,-59.5479 1933,-46.2368"/>
<polygon fill="black" stroke="black" points="1936.5,-46.1754 1933,-36.1754 1929.5,-46.1755 1936.5,-46.1754"/>
<text text-anchor="middle" x="1936.5" y="-57.8" font-family="Times New Roman,serif" font-size="14.00">1</text>
</g>
<!-- 3.05 Bestand loeschen -->
<g id="node11" class="node"><title>3.05 Bestand loeschen</title>
<text text-anchor="middle" x="2091" y="-101.3" font-family="Times New Roman,serif" font-size="14.00">3.05 Bestand loeschen</text>
</g>
<!-- 3.05 Bestand loeschen&#45;&gt;$ -->
<g id="edge13" class="edge"><title>3.05 Bestand loeschen&#45;&gt;$</title>
<path fill="none" stroke="black" d="M2059.03,-86.799C2030.79,-71.6111 1989.97,-49.646 1962.5,-34.8713"/>
<polygon fill="black" stroke="black" points="1963.85,-31.6235 1953.39,-29.9681 1960.54,-37.7881 1963.85,-31.6235"/>
<text text-anchor="middle" x="2025.5" y="-57.8" font-family="Times New Roman,serif" font-size="14.00">1</text>
</g>
<!-- 4.01 Recherche im Bestand durchfuehren -->
<g id="node12" class="node"><title>4.01 Recherche im Bestand durchfuehren</title>
<text text-anchor="middle" x="2304" y="-101.3" font-family="Times New Roman,serif" font-size="14.00">4.01 Recherche im Bestand durchfuehren</text>
</g>
<!-- 4.01 Recherche im Bestand durchfuehren&#45;&gt;$ -->
<g id="edge14" class="edge"><title>4.01 Recherche im Bestand durchfuehren&#45;&gt;$</title>
<path fill="none" stroke="black" d="M2229.37,-86.9012C2150.12,-68.7451 2028.24,-40.8197 1968.49,-27.1314"/>
<polygon fill="black" stroke="black" points="1968.95,-23.6467 1958.42,-24.825 1967.39,-30.4699 1968.95,-23.6467"/>
<text text-anchor="middle" x="2144.5" y="-57.8" font-family="Times New Roman,serif" font-size="14.00">1</text>
</g>
<!-- 4.02 Recherche in Klassifikation durchfuehren -->
<g id="node13" class="node"><title>4.02 Recherche in Klassifikation durchfuehren</title>
<text text-anchor="middle" x="2582" y="-101.3" font-family="Times New Roman,serif" font-size="14.00">4.02 Recherche in Klassifikation durchfuehren</text>
</g>
<!-- 4.02 Recherche in Klassifikation durchfuehren&#45;&gt;$ -->
<g id="edge15" class="edge"><title>4.02 Recherche in Klassifikation durchfuehren&#45;&gt;$</title>
<path fill="none" stroke="black" d="M2451.84,-86.9523C2300.56,-67.1397 2060.08,-35.6438 1969.29,-23.7534"/>
<polygon fill="black" stroke="black" points="1969.6,-20.2635 1959.23,-22.4352 1968.69,-27.2042 1969.6,-20.2635"/>
<text text-anchor="middle" x="2300.5" y="-57.8" font-family="Times New Roman,serif" font-size="14.00">1</text>
</g>
<!-- 7.01 Nutzer einrichten -->
<g id="node14" class="node"><title>7.01 Nutzer einrichten</title>
<text text-anchor="middle" x="2806" y="-101.3" font-family="Times New Roman,serif" font-size="14.00">7.01 Nutzer einrichten</text>
</g>
<!-- 7.01 Nutzer einrichten&#45;&gt;$ -->
<g id="edge16" class="edge"><title>7.01 Nutzer einrichten&#45;&gt;$</title>
<path fill="none" stroke="black" d="M2736.73,-88.575C2733.45,-88.0074 2730.19,-87.478 2727,-87 2437.38,-43.6145 2083.87,-25.4855 1970.12,-20.508"/>
<polygon fill="black" stroke="black" points="1970.02,-17.0002 1959.88,-20.0669 1969.72,-23.9937 1970.02,-17.0002"/>
<text text-anchor="middle" x="2579.5" y="-57.8" font-family="Times New Roman,serif" font-size="14.00">1</text>
</g>
<!-- 7.02 Nutzer&#45;Rechte vergeben (anlegen) -->
<g id="node15" class="node"><title>7.02 Nutzer&#45;Rechte vergeben (anlegen)</title>
<text text-anchor="middle" x="3010" y="-101.3" font-family="Times New Roman,serif" font-size="14.00">7.02 Nutzer&#45;Rechte vergeben (anlegen)</text>
</g>
<!-- 7.02 Nutzer&#45;Rechte vergeben (anlegen)&#45;&gt;$ -->
<g id="edge17" class="edge"><title>7.02 Nutzer&#45;Rechte vergeben (anlegen)&#45;&gt;$</title>
<path fill="none" stroke="black" d="M2893.31,-88.1583C2890.18,-87.7641 2887.07,-87.3773 2884,-87 2752.18,-70.7864 2719.37,-64.8866 2587,-54 2352.74,-34.7334 2070.37,-23.7605 1970.34,-20.2498"/>
<polygon fill="black" stroke="black" points="1970.25,-16.7449 1960.14,-19.8957 1970.01,-23.7407 1970.25,-16.7449"/>
<text text-anchor="middle" x="2739.5" y="-57.8" font-family="Times New Roman,serif" font-size="14.00">1</text>
</g>
<!-- 7.02 Nutzer&#45;Rechte vergeben (aendern) -->
<g id="node16" class="node"><title>7.02 Nutzer&#45;Rechte vergeben (aendern)</title>
<text text-anchor="middle" x="3262" y="-101.3" font-family="Times New Roman,serif" font-size="14.00">7.02 Nutzer&#45;Rechte vergeben (aendern)</text>
</g>
<!-- 7.02 Nutzer&#45;Rechte vergeben (aendern)&#45;&gt;$ -->
<g id="edge18" class="edge"><title>7.02 Nutzer&#45;Rechte vergeben (aendern)&#45;&gt;$</title>
<path fill="none" stroke="black" d="M3144.4,-88.0549C3141.23,-87.6911 3138.1,-87.3387 3135,-87 2677.91,-36.9983 2118.76,-22.7177 1970.52,-19.6897"/>
<polygon fill="black" stroke="black" points="1970.24,-16.1835 1960.17,-19.4832 1970.1,-23.1821 1970.24,-16.1835"/>
<text text-anchor="middle" x="2942.5" y="-57.8" font-family="Times New Roman,serif" font-size="14.00">1</text>
</g>
<!-- 7.02 Nutzer&#45;Rechte vergeben (loeschen) -->
<g id="node17" class="node"><title>7.02 Nutzer&#45;Rechte vergeben (loeschen)</title>
<text text-anchor="middle" x="3518" y="-101.3" font-family="Times New Roman,serif" font-size="14.00">7.02 Nutzer&#45;Rechte vergeben (loeschen)</text>
</g>
<!-- 7.02 Nutzer&#45;Rechte vergeben (loeschen)&#45;&gt;$ -->
<g id="edge19" class="edge"><title>7.02 Nutzer&#45;Rechte vergeben (loeschen)&#45;&gt;$</title>
<path fill="none" stroke="black" d="M3397.97,-88.06C3394.61,-87.6924 3391.28,-87.3381 3388,-87 3193.81,-67.0026 3144.93,-64.6928 2950,-54 2567.43,-33.0136 2103.16,-22.4658 1970.19,-19.732"/>
<polygon fill="black" stroke="black" points="1970.2,-16.2315 1960.13,-19.5271 1970.05,-23.23 1970.2,-16.2315"/>
<text text-anchor="middle" x="3195.5" y="-57.8" font-family="Times New Roman,serif" font-size="14.00">1</text>
</g>
<!-- 7.03 Nutzer loeschen -->
<g id="node18" class="node"><title>7.03 Nutzer loeschen</title>
<text text-anchor="middle" x="3723" y="-101.3" font-family="Times New Roman,serif" font-size="14.00">7.03 Nutzer loeschen</text>
</g>
<!-- 7.03 Nutzer loeschen&#45;&gt;$ -->
<g id="edge20" class="edge"><title>7.03 Nutzer loeschen&#45;&gt;$</title>
<path fill="none" stroke="black" d="M3655.96,-88.448C3652.94,-87.9227 3649.94,-87.436 3647,-87 3451.26,-57.9922 3400.62,-64.0617 3203,-54 2716.29,-29.2196 2123.69,-21.1424 1970.54,-19.3951"/>
<polygon fill="black" stroke="black" points="1970.31,-15.8925 1960.28,-19.2801 1970.24,-22.8921 1970.31,-15.8925"/>
<text text-anchor="middle" x="3506.5" y="-57.8" font-family="Times New Roman,serif" font-size="14.00">1</text>
</g>
</g>
</svg>
