<?xml version="1.0" encoding="UTF-8" standalone="no"?>
<!DOCTYPE svg PUBLIC "-//W3C//DTD SVG 1.1//EN"
 "http://www.w3.org/Graphics/SVG/1.1/DTD/svg11.dtd">
<!-- Generated by graphviz version 2.28.0 (20110507.0327)
 -->
<!-- Title: G Pages: 1 -->
<svg width="434pt" height="220pt"
 viewBox="0.00 0.00 433.91 220.00" xmlns="http://www.w3.org/2000/svg" xmlns:xlink="http://www.w3.org/1999/xlink">
<g id="graph1" class="graph" transform="scale(1 1) rotate(0) translate(4 216)">
<title>G</title>
<polygon fill="white" stroke="white" points="-4,5 -4,-216 430.913,-216 430.913,5 -4,5"/>
<!-- Login -->
<g id="node1" class="node"><title>Login</title>
<text text-anchor="middle" x="116.913" y="-190.3" font-family="Times New Roman,serif" font-size="14.00">Login</text>
</g>
<!-- Aktenbearbeitung -->
<g id="node2" class="node"><title>Aktenbearbeitung</title>
<text text-anchor="middle" x="116.913" y="-102.3" font-family="Times New Roman,serif" font-size="14.00">Aktenbearbeitung</text>
</g>
<!-- Login&#45;&gt;Aktenbearbeitung -->
<g id="edge2" class="edge"><title>Login&#45;&gt;Aktenbearbeitung</title>
<path fill="none" stroke="black" d="M89.6207,-193.005C63.1433,-191.368 24.2201,-184.261 4.91299,-158 -11.4305,-135.77 17.2164,-122.99 49.6214,-115.782"/>
<polygon fill="black" stroke="black" points="50.6521,-119.144 59.7531,-113.72 49.256,-112.285 50.6521,-119.144"/>
<text text-anchor="middle" x="106.413" y="-146.3" font-family="Times New Roman,serif" font-size="14.00">1; n(418394048515 1258178722766)</text>
</g>
<!-- Aktenbearbeitung&#45;&gt;Login -->
<g id="edge4" class="edge"><title>Aktenbearbeitung&#45;&gt;Login</title>
<path fill="none" stroke="black" d="M174.08,-118.737C199.334,-126.742 220.729,-139.339 207.913,-158 195.836,-175.585 173.594,-184.339 154.124,-188.694"/>
<polygon fill="black" stroke="black" points="153.42,-185.265 144.263,-190.594 154.745,-192.139 153.42,-185.265"/>
<text text-anchor="middle" x="287.413" y="-146.3" font-family="Times New Roman,serif" font-size="14.00">0.0333; n(917213832568 0)</text>
</g>
<!-- Aktenbearbeitung&#45;&gt;Aktenbearbeitung -->
<g id="edge6" class="edge"><title>Aktenbearbeitung&#45;&gt;Aktenbearbeitung</title>
<path fill="none" stroke="black" d="M174.139,-113.797C184.586,-112.81 191.913,-110.211 191.913,-106 191.913,-103.302 188.906,-101.266 183.998,-99.8918"/>
<polygon fill="black" stroke="black" points="184.586,-96.4416 174.139,-98.2032 183.404,-103.341 184.586,-96.4416"/>
<text text-anchor="middle" x="308.913" y="-102.3" font-family="Times New Roman,serif" font-size="14.00">0.194; n(4146324854032 5266993456617)</text>
</g>
<!-- $ -->
<g id="node7" class="node"><title>$</title>
<ellipse fill="none" stroke="black" cx="116.913" cy="-18" rx="27" ry="18"/>
<text text-anchor="middle" x="116.913" y="-14.3" font-family="Times New Roman,serif" font-size="14.00">$</text>
</g>
<!-- Aktenbearbeitung&#45;&gt;$ -->
<g id="edge8" class="edge"><title>Aktenbearbeitung&#45;&gt;$</title>
<path fill="none" stroke="black" d="M116.913,-87.5966C116.913,-75.7459 116.913,-59.8169 116.913,-46.2917"/>
<polygon fill="black" stroke="black" points="120.413,-46.084 116.913,-36.084 113.413,-46.084 120.413,-46.084"/>
<text text-anchor="middle" x="135.913" y="-58.3" font-family="Times New Roman,serif" font-size="14.00">0.7726</text>
</g>
</g>
</svg>
