<?xml version="1.0" encoding="UTF-8" standalone="no"?>
<!DOCTYPE svg PUBLIC "-//W3C//DTD SVG 1.1//EN"
 "http://www.w3.org/Graphics/SVG/1.1/DTD/svg11.dtd">
<!-- Generated by graphviz version 2.28.0 (20110507.0327)
 -->
<!-- Title: G Pages: 1 -->
<svg width="310pt" height="220pt"
 viewBox="0.00 0.00 310.17 220.00" xmlns="http://www.w3.org/2000/svg" xmlns:xlink="http://www.w3.org/1999/xlink">
<g id="graph1" class="graph" transform="scale(1 1) rotate(0) translate(4 216)">
<title>G</title>
<polygon fill="white" stroke="white" points="-4,5 -4,-216 307.167,-216 307.167,5 -4,5"/>
<!-- Login* -->
<g id="node1" class="node"><title>Login*</title>
<text text-anchor="middle" x="74.167" y="-190.3" font-family="Times New Roman,serif" font-size="14.00">Login*</text>
</g>
<!-- Aktenbearbeitung -->
<g id="node2" class="node"><title>Aktenbearbeitung</title>
<text text-anchor="middle" x="74.167" y="-102.3" font-family="Times New Roman,serif" font-size="14.00">Aktenbearbeitung</text>
</g>
<!-- Login*&#45;&gt;Aktenbearbeitung -->
<g id="edge2" class="edge"><title>Login*&#45;&gt;Aktenbearbeitung</title>
<path fill="none" stroke="black" d="M45.9958,-186.82C30.485,-181.824 12.5297,-173.054 3.16695,-158 -3.99678,-146.482 2.49538,-136.79 13.9815,-129.053"/>
<polygon fill="black" stroke="black" points="15.7508,-132.073 22.6248,-124.011 12.2235,-126.027 15.7508,-132.073"/>
<text text-anchor="middle" x="64.167" y="-146.3" font-family="Times New Roman,serif" font-size="14.00">1; n(418394 1258178)</text>
</g>
<!-- Aktenbearbeitung&#45;&gt;Login* -->
<g id="edge4" class="edge"><title>Aktenbearbeitung&#45;&gt;Login*</title>
<path fill="none" stroke="black" d="M108.651,-124.085C121.753,-133.069 132.051,-144.926 125.167,-158 121.727,-164.533 116.457,-170.081 110.587,-174.702"/>
<polygon fill="black" stroke="black" points="108.547,-171.858 102.327,-180.435 112.538,-177.608 108.547,-171.858"/>
<text text-anchor="middle" x="183.167" y="-146.3" font-family="Times New Roman,serif" font-size="14.00">0.0333; n(917213 0)</text>
</g>
<!-- Aktenbearbeitung&#45;&gt;Aktenbearbeitung -->
<g id="edge6" class="edge"><title>Aktenbearbeitung&#45;&gt;Aktenbearbeitung</title>
<path fill="none" stroke="black" d="M131.393,-113.797C141.84,-112.81 149.167,-110.211 149.167,-106 149.167,-103.302 146.16,-101.266 141.252,-99.8918"/>
<polygon fill="black" stroke="black" points="141.84,-96.4416 131.393,-98.2032 140.658,-103.341 141.84,-96.4416"/>
<text text-anchor="middle" x="225.667" y="-102.3" font-family="Times New Roman,serif" font-size="14.00">0.194; n(4146324 5266993)</text>
</g>
<!-- $ -->
<g id="node7" class="node"><title>$</title>
<ellipse fill="none" stroke="black" cx="74.167" cy="-18" rx="27" ry="18"/>
<text text-anchor="middle" x="74.167" y="-14.3" font-family="Times New Roman,serif" font-size="14.00">$</text>
</g>
<!-- Aktenbearbeitung&#45;&gt;$ -->
<g id="edge8" class="edge"><title>Aktenbearbeitung&#45;&gt;$</title>
<path fill="none" stroke="black" d="M74.167,-87.5966C74.167,-75.7459 74.167,-59.8169 74.167,-46.2917"/>
<polygon fill="black" stroke="black" points="77.6671,-46.084 74.167,-36.084 70.6671,-46.084 77.6671,-46.084"/>
<text text-anchor="middle" x="93.167" y="-58.3" font-family="Times New Roman,serif" font-size="14.00">0.7726</text>
</g>
</g>
</svg>
