<?xml version="1.0" encoding="UTF-8" standalone="no"?>
<!DOCTYPE svg PUBLIC "-//W3C//DTD SVG 1.1//EN"
 "http://www.w3.org/Graphics/SVG/1.1/DTD/svg11.dtd">
<!-- Generated by graphviz version 2.28.0 (20110507.0327)
 -->
<!-- Title: G Pages: 1 -->
<svg width="385pt" height="220pt"
 viewBox="0.00 0.00 385.00 220.00" xmlns="http://www.w3.org/2000/svg" xmlns:xlink="http://www.w3.org/1999/xlink">
<g id="graph1" class="graph" transform="scale(1 1) rotate(0) translate(4 216)">
<title>G</title>
<polygon fill="white" stroke="white" points="-4,5 -4,-216 382,-216 382,5 -4,5"/>
<!-- Login* -->
<g id="node1" class="node"><title>Login*</title>
<text text-anchor="middle" x="109" y="-190.3" font-family="Times New Roman,serif" font-size="14.00">Login*</text>
</g>
<!-- Aktenbearbeitung -->
<g id="node2" class="node"><title>Aktenbearbeitung</title>
<text text-anchor="middle" x="109" y="-102.3" font-family="Times New Roman,serif" font-size="14.00">Aktenbearbeitung</text>
</g>
<!-- Login*&#45;&gt;Aktenbearbeitung -->
<g id="edge2" class="edge"><title>Login*&#45;&gt;Aktenbearbeitung</title>
<path fill="none" stroke="black" d="M109,-175.597C109,-163.746 109,-147.817 109,-134.292"/>
<polygon fill="black" stroke="black" points="112.5,-134.084 109,-124.084 105.5,-134.084 112.5,-134.084"/>
<text text-anchor="middle" x="190.5" y="-146.3" font-family="Times New Roman,serif" font-size="14.00">1; n(418394048 1258178722)</text>
</g>
<!-- Aktenbearbeitung&#45;&gt;Aktenbearbeitung -->
<g id="edge6" class="edge"><title>Aktenbearbeitung&#45;&gt;Aktenbearbeitung</title>
<path fill="none" stroke="black" d="M166.226,-113.797C176.673,-112.81 184,-110.211 184,-106 184,-103.302 180.993,-101.266 176.085,-99.8918"/>
<polygon fill="black" stroke="black" points="176.673,-96.4416 166.226,-98.2032 175.491,-103.341 176.673,-96.4416"/>
<text text-anchor="middle" x="280.5" y="-102.3" font-family="Times New Roman,serif" font-size="14.00">0.194; n(4146324854 5266993456)</text>
</g>
<!-- Login -->
<g id="node5" class="node"><title>Login</title>
<ellipse fill="none" stroke="black" cx="31" cy="-18" rx="31.2735" ry="18"/>
<text text-anchor="middle" x="31" y="-14.3" font-family="Times New Roman,serif" font-size="14.00">Login</text>
</g>
<!-- Aktenbearbeitung&#45;&gt;Login -->
<g id="edge4" class="edge"><title>Aktenbearbeitung&#45;&gt;Login</title>
<path fill="none" stroke="black" d="M51.9822,-88.2682C44.1002,-83.5807 37.0037,-77.6059 32,-70 27.4142,-63.0293 26.0685,-54.2814 26.199,-46.0087"/>
<polygon fill="black" stroke="black" points="29.6945,-46.2056 27.0212,-35.9537 22.7178,-45.6351 29.6945,-46.2056"/>
<text text-anchor="middle" x="98.5" y="-58.3" font-family="Times New Roman,serif" font-size="14.00">0.0333; n(917213832 0)</text>
</g>
<!-- $ -->
<g id="node8" class="node"><title>$</title>
<ellipse fill="none" stroke="black" cx="187" cy="-18" rx="27" ry="18"/>
<text text-anchor="middle" x="187" y="-14.3" font-family="Times New Roman,serif" font-size="14.00">$</text>
</g>
<!-- Aktenbearbeitung&#45;&gt;$ -->
<g id="edge8" class="edge"><title>Aktenbearbeitung&#45;&gt;$</title>
<path fill="none" stroke="black" d="M143.537,-87.9829C151.313,-82.9842 159.023,-76.9573 165,-70 171.052,-62.9552 175.664,-53.9926 179.063,-45.5523"/>
<polygon fill="black" stroke="black" points="182.397,-46.6245 182.51,-36.0303 175.815,-44.242 182.397,-46.6245"/>
<text text-anchor="middle" x="194" y="-58.3" font-family="Times New Roman,serif" font-size="14.00">0.7726</text>
</g>
</g>
</svg>
