<?xml version="1.0" encoding="UTF-8" standalone="no"?>
<!DOCTYPE svg PUBLIC "-//W3C//DTD SVG 1.1//EN"
 "http://www.w3.org/Graphics/SVG/1.1/DTD/svg11.dtd">
<!-- Generated by graphviz version 2.28.0 (20110507.0327)
 -->
<!-- Title: G Pages: 1 -->
<svg width="1579pt" height="936pt"
 viewBox="0.00 0.00 1579.00 936.00" xmlns="http://www.w3.org/2000/svg" xmlns:xlink="http://www.w3.org/1999/xlink">
<g id="graph1" class="graph" transform="scale(1 1) rotate(0) translate(4 932)">
<title>G</title>
<polygon fill="white" stroke="white" points="-4,5 -4,-932 1576,-932 1576,5 -4,5"/>
<!-- _init* -->
<g id="node1" class="node"><title>_init*</title>
<text text-anchor="middle" x="243" y="-906.3" font-family="Times New Roman,serif" font-size="14.00">_init*</text>
</g>
<!-- doSupplierSetAllURLs -->
<g id="node2" class="node"><title>doSupplierSetAllURLs</title>
<text text-anchor="middle" x="73" y="-764.3" font-family="Times New Roman,serif" font-size="14.00">doSupplierSetAllURLs</text>
</g>
<!-- _init*&#45;&gt;doSupplierSetAllURLs -->
<g id="edge2" class="edge"><title>_init*&#45;&gt;doSupplierSetAllURLs</title>
<path fill="none" stroke="black" d="M215.938,-908.292C187.752,-906.161 143.891,-898.735 116,-874 93.2769,-853.848 82.3273,-819.882 77.2119,-796.052"/>
<polygon fill="black" stroke="black" points="80.6444,-795.368 75.3049,-786.217 73.7724,-796.7 80.6444,-795.368"/>
<text text-anchor="middle" x="131.5" y="-862.3" font-family="Times New Roman,serif" font-size="14.00">0.002</text>
</g>
<!-- doAtomicityTests -->
<g id="node3" class="node"><title>doAtomicityTests</title>
<text text-anchor="middle" x="146" y="-656.3" font-family="Times New Roman,serif" font-size="14.00">doAtomicityTests</text>
</g>
<!-- _init*&#45;&gt;doAtomicityTests -->
<g id="edge4" class="edge"><title>_init*&#45;&gt;doAtomicityTests</title>
<path fill="none" stroke="black" d="M219.41,-891.856C204.066,-879.318 185.094,-860.9 175,-840 151.052,-790.417 146.291,-725.03 145.677,-688.579"/>
<polygon fill="black" stroke="black" points="149.175,-688.22 145.603,-678.246 142.175,-688.271 149.175,-688.22"/>
<text text-anchor="middle" x="190.5" y="-818.3" font-family="Times New Roman,serif" font-size="14.00">0.002</text>
</g>
<!-- doCacheTest -->
<g id="node4" class="node"><title>doCacheTest</title>
<text text-anchor="middle" x="207" y="-548.3" font-family="Times New Roman,serif" font-size="14.00">doCacheTest</text>
</g>
<!-- _init*&#45;&gt;doCacheTest -->
<g id="edge6" class="edge"><title>_init*&#45;&gt;doCacheTest</title>
<path fill="none" stroke="black" d="M235.596,-891.9C228.872,-874.798 220,-847.574 220,-823 220,-823 220,-823 220,-659 220,-632.036 215.805,-601.5 212.181,-580.151"/>
<polygon fill="black" stroke="black" points="215.605,-579.416 210.416,-570.179 208.712,-580.636 215.605,-579.416"/>
<text text-anchor="middle" x="235.5" y="-764.3" font-family="Times New Roman,serif" font-size="14.00">0.002</text>
</g>
<!-- doLogin -->
<g id="node5" class="node"><title>doLogin</title>
<text text-anchor="middle" x="276" y="-440.3" font-family="Times New Roman,serif" font-size="14.00">doLogin</text>
</g>
<!-- _init*&#45;&gt;doLogin -->
<g id="edge8" class="edge"><title>_init*&#45;&gt;doLogin</title>
<path fill="none" stroke="black" d="M250.404,-891.9C257.128,-874.798 266,-847.574 266,-823 266,-823 266,-823 266,-659 266,-591.883 270.969,-513.054 273.901,-472.374"/>
<polygon fill="black" stroke="black" points="277.408,-472.415 274.651,-462.185 270.427,-471.902 277.408,-472.415"/>
<text text-anchor="middle" x="281.5" y="-710.3" font-family="Times New Roman,serif" font-size="14.00">0.498</text>
</g>
<!-- doVehicleQuotes -->
<g id="node6" class="node"><title>doVehicleQuotes</title>
<text text-anchor="middle" x="995" y="-818.3" font-family="Times New Roman,serif" font-size="14.00">doVehicleQuotes</text>
</g>
<!-- _init*&#45;&gt;doVehicleQuotes -->
<g id="edge10" class="edge"><title>_init*&#45;&gt;doVehicleQuotes</title>
<path fill="none" stroke="black" d="M270.208,-905.888C377.137,-893.66 770.386,-848.687 928.51,-830.604"/>
<polygon fill="black" stroke="black" points="929.042,-834.066 938.58,-829.452 928.247,-827.111 929.042,-834.066"/>
<text text-anchor="middle" x="706" y="-862.3" font-family="Times New Roman,serif" font-size="14.00">0.3685</text>
</g>
<!-- doInventory -->
<g id="node13" class="node"><title>doInventory</title>
<text text-anchor="middle" x="1245" y="-210.3" font-family="Times New Roman,serif" font-size="14.00">doInventory</text>
</g>
<!-- _init*&#45;&gt;doInventory -->
<g id="edge12" class="edge"><title>_init*&#45;&gt;doInventory</title>
<path fill="none" stroke="black" d="M270.241,-908.654C456.343,-906.119 1533,-888.618 1533,-823 1533,-823 1533,-823 1533,-443 1533,-325.403 1455.85,-305.175 1352,-250 1334.89,-240.909 1314.98,-233.61 1297.01,-228.078"/>
<polygon fill="black" stroke="black" points="1297.84,-224.674 1287.26,-225.187 1295.85,-231.385 1297.84,-224.674"/>
<text text-anchor="middle" x="1552" y="-548.3" font-family="Times New Roman,serif" font-size="14.00">0.1275</text>
</g>
<!-- $ -->
<g id="node25" class="node"><title>$</title>
<ellipse fill="none" stroke="black" cx="756" cy="-18" rx="27" ry="18"/>
<text text-anchor="middle" x="756" y="-14.3" font-family="Times New Roman,serif" font-size="14.00">$</text>
</g>
<!-- doSupplierSetAllURLs&#45;&gt;$ -->
<g id="edge14" class="edge"><title>doSupplierSetAllURLs&#45;&gt;$</title>
<path fill="none" stroke="black" d="M72.7373,-749.742C72.441,-728.764 72,-692.286 72,-661 72,-661 72,-661 72,-105 72,-41.2768 143.725,-67.5086 206,-54 304.197,-32.6992 611.492,-22.791 718.673,-19.9197"/>
<polygon fill="black" stroke="black" points="719.087,-23.4101 728.992,-19.6486 718.903,-16.4125 719.087,-23.4101"/>
<text text-anchor="middle" x="75.5" y="-386.3" font-family="Times New Roman,serif" font-size="14.00">1</text>
</g>
<!-- doAtomicityTests&#45;&gt;$ -->
<g id="edge16" class="edge"><title>doAtomicityTests&#45;&gt;$</title>
<path fill="none" stroke="black" d="M146,-641.742C146,-620.763 146,-584.285 146,-553 146,-553 146,-553 146,-105 146,-46.8173 586.753,-25.4094 718.955,-20.2968"/>
<polygon fill="black" stroke="black" points="719.141,-23.7924 729.002,-19.9169 718.877,-16.7974 719.141,-23.7924"/>
<text text-anchor="middle" x="149.5" y="-342.3" font-family="Times New Roman,serif" font-size="14.00">1</text>
</g>
<!-- doCacheTest&#45;&gt;$ -->
<g id="edge18" class="edge"><title>doCacheTest&#45;&gt;$</title>
<path fill="none" stroke="black" d="M210.941,-533.847C215.385,-512.973 222,-476.596 222,-445 222,-445 222,-445 222,-105 222,-54.5816 597.838,-28.2308 718.905,-21.0504"/>
<polygon fill="black" stroke="black" points="719.374,-24.5291 729.153,-20.4526 718.966,-17.541 719.374,-24.5291"/>
<text text-anchor="middle" x="225.5" y="-298.3" font-family="Times New Roman,serif" font-size="14.00">1</text>
</g>
<!-- doLogin&#45;&gt;$ -->
<g id="edge20" class="edge"><title>doLogin&#45;&gt;$</title>
<path fill="none" stroke="black" d="M308.005,-426.758C334.907,-410.574 369,-382.968 369,-347 369,-347 369,-347 369,-105 369,-33.8508 621.418,-21.5311 718.54,-19.4242"/>
<polygon fill="black" stroke="black" points="718.856,-22.9189 728.787,-19.2278 718.722,-15.9202 718.856,-22.9189"/>
<text text-anchor="middle" x="372.5" y="-254.3" font-family="Times New Roman,serif" font-size="14.00">1</text>
</g>
<!-- doVehicleQuotes&#45;&gt;doVehicleQuotes -->
<g id="edge22" class="edge"><title>doVehicleQuotes&#45;&gt;doVehicleQuotes</title>
<path fill="none" stroke="black" d="M1051.46,-829.797C1061.77,-828.81 1069,-826.211 1069,-822 1069,-819.368 1066.18,-817.366 1061.54,-815.994"/>
<polygon fill="black" stroke="black" points="1061.92,-812.506 1051.46,-814.203 1060.7,-819.398 1061.92,-812.506"/>
<text text-anchor="middle" x="1135.5" y="-818.3" font-family="Times New Roman,serif" font-size="14.00">0.3885; n(12890 56833)</text>
</g>
<!-- doAddToShoppingCart -->
<g id="node7" class="node"><title>doAddToShoppingCart</title>
<text text-anchor="middle" x="900" y="-710.3" font-family="Times New Roman,serif" font-size="14.00">doAddToShoppingCart</text>
</g>
<!-- doVehicleQuotes&#45;&gt;doAddToShoppingCart -->
<g id="edge24" class="edge"><title>doVehicleQuotes&#45;&gt;doAddToShoppingCart</title>
<path fill="none" stroke="black" d="M993.573,-803.939C991.446,-788.271 986.154,-765.239 973,-750 968.902,-745.252 964.014,-741.096 958.737,-737.47"/>
<polygon fill="black" stroke="black" points="960.53,-734.464 950.18,-732.198 956.858,-740.423 960.53,-734.464"/>
<text text-anchor="middle" x="1057.5" y="-764.3" font-family="Times New Roman,serif" font-size="14.00">0.0737; n(13272 60209)</text>
</g>
<!-- doHome -->
<g id="node9" class="node"><title>doHome</title>
<text text-anchor="middle" x="1030" y="-298.3" font-family="Times New Roman,serif" font-size="14.00">doHome</text>
</g>
<!-- doVehicleQuotes&#45;&gt;doHome -->
<g id="edge26" class="edge"><title>doVehicleQuotes&#45;&gt;doHome</title>
<path fill="none" stroke="black" d="M1051.52,-814.688C1146.06,-802.542 1326,-771.946 1326,-715 1326,-715 1326,-715 1326,-389 1326,-336.847 1154.41,-314.256 1072.52,-306.445"/>
<polygon fill="black" stroke="black" points="1072.8,-302.956 1062.52,-305.522 1072.16,-309.927 1072.8,-302.956"/>
<text text-anchor="middle" x="1392.5" y="-548.3" font-family="Times New Roman,serif" font-size="14.00">0.0299; n(10493 45500)</text>
</g>
<!-- doVehicleQuotes&#45;&gt;$ -->
<g id="edge28" class="edge"><title>doVehicleQuotes&#45;&gt;$</title>
<path fill="none" stroke="black" d="M1051.36,-820.289C1177.98,-817.167 1474,-800.704 1474,-715 1474,-715 1474,-715 1474,-443 1474,-356.845 1535,-345.155 1535,-259 1535,-259 1535,-259 1535,-105 1535,-29.51 949.583,-20.2742 793.733,-19.153"/>
<polygon fill="black" stroke="black" points="793.291,-15.6502 783.268,-19.0855 793.245,-22.65 793.291,-15.6502"/>
<text text-anchor="middle" x="1506.5" y="-386.3" font-family="Times New Roman,serif" font-size="14.00">0.508</text>
</g>
<!-- doAddToShoppingCart&#45;&gt;doVehicleQuotes -->
<g id="edge30" class="edge"><title>doAddToShoppingCart&#45;&gt;doVehicleQuotes</title>
<path fill="none" stroke="black" d="M853.933,-732.128C846.773,-736.826 840.327,-742.701 836,-750 827.84,-763.763 825.976,-773.529 836,-786 847.785,-800.662 890.299,-809.539 928.402,-814.683"/>
<polygon fill="black" stroke="black" points="928.122,-818.176 938.486,-815.974 929.011,-811.232 928.122,-818.176"/>
<text text-anchor="middle" x="902.5" y="-764.3" font-family="Times New Roman,serif" font-size="14.00">0.2976; n(13969 59263)</text>
</g>
<!-- doDeferedPurchase -->
<g id="node8" class="node"><title>doDeferedPurchase</title>
<text text-anchor="middle" x="650" y="-386.3" font-family="Times New Roman,serif" font-size="14.00">doDeferedPurchase</text>
</g>
<!-- doAddToShoppingCart&#45;&gt;doDeferedPurchase -->
<g id="edge32" class="edge"><title>doAddToShoppingCart&#45;&gt;doDeferedPurchase</title>
<path fill="none" stroke="black" d="M824.513,-705.086C686.026,-688.826 400.188,-646.597 342,-570 332.321,-557.259 331.236,-545.838 342,-534 370.383,-502.785 493.092,-534.52 531,-516 580.435,-491.848 577.942,-465.733 616,-426 619.34,-422.513 622.878,-418.843 626.361,-415.246"/>
<polygon fill="black" stroke="black" points="628.898,-417.657 633.35,-408.043 623.874,-412.783 628.898,-417.657"/>
<text text-anchor="middle" x="405" y="-548.3" font-family="Times New Roman,serif" font-size="14.00">0.0563; n(8654 42812)</text>
</g>
<!-- doShoppingCart -->
<g id="node10" class="node"><title>doShoppingCart</title>
<text text-anchor="middle" x="661" y="-602.3" font-family="Times New Roman,serif" font-size="14.00">doShoppingCart</text>
</g>
<!-- doAddToShoppingCart&#45;&gt;doShoppingCart -->
<g id="edge34" class="edge"><title>doAddToShoppingCart&#45;&gt;doShoppingCart</title>
<path fill="none" stroke="black" d="M855.466,-695.898C841.479,-690.364 826.029,-684.082 812,-678 775.665,-662.25 735.077,-643.074 705.139,-628.623"/>
<polygon fill="black" stroke="black" points="706.338,-625.315 695.813,-624.108 703.288,-631.616 706.338,-625.315"/>
<text text-anchor="middle" x="878.5" y="-656.3" font-family="Times New Roman,serif" font-size="14.00">0.0587; n(11510 55408)</text>
</g>
<!-- doPurchase -->
<g id="node12" class="node"><title>doPurchase</title>
<text text-anchor="middle" x="918" y="-386.3" font-family="Times New Roman,serif" font-size="14.00">doPurchase</text>
</g>
<!-- doAddToShoppingCart&#45;&gt;doPurchase -->
<g id="edge36" class="edge"><title>doAddToShoppingCart&#45;&gt;doPurchase</title>
<path fill="none" stroke="black" d="M930.094,-695.826C936.106,-690.893 941.608,-684.935 945,-678 957.302,-652.847 954.034,-452.502 945,-426 943.91,-422.804 942.398,-419.673 940.64,-416.678"/>
<polygon fill="black" stroke="black" points="943.351,-414.443 934.807,-408.177 937.579,-418.403 943.351,-414.443"/>
<text text-anchor="middle" x="1020.5" y="-548.3" font-family="Times New Roman,serif" font-size="14.00">0.0695; n(11019 51499)</text>
</g>
<!-- doAddToShoppingCart&#45;&gt;$ -->
<g id="edge38" class="edge"><title>doAddToShoppingCart&#45;&gt;$</title>
<path fill="none" stroke="black" d="M942.591,-695.894C989.367,-674.436 1061.73,-632.68 1091,-570 1105.1,-539.797 1129.05,-405.788 1068,-338 1043.61,-310.919 1022.31,-332.303 988,-320 937.859,-302.018 918.596,-303.737 881,-266 871.706,-256.671 781.086,-65.6769 775,-54 773.352,-50.8387 771.597,-47.5309 769.845,-44.264"/>
<polygon fill="black" stroke="black" points="772.844,-42.4506 765.007,-35.3205 766.687,-45.7813 772.844,-42.4506"/>
<text text-anchor="middle" x="1099" y="-342.3" font-family="Times New Roman,serif" font-size="14.00">0.5179</text>
</g>
<!-- doDeferedPurchase&#45;&gt;doHome -->
<g id="edge40" class="edge"><title>doDeferedPurchase&#45;&gt;doHome</title>
<path fill="none" stroke="black" d="M689.752,-371.909C717.18,-360.743 754.736,-346.674 789,-338 857.35,-320.697 938.919,-311.085 987.48,-306.486"/>
<polygon fill="black" stroke="black" points="987.981,-309.955 997.619,-305.554 987.34,-302.984 987.981,-309.955"/>
<text text-anchor="middle" x="855.5" y="-342.3" font-family="Times New Roman,serif" font-size="14.00">0.3944; n(14539 63321)</text>
</g>
<!-- doDeferedPurchase&#45;&gt;$ -->
<g id="edge42" class="edge"><title>doDeferedPurchase&#45;&gt;$</title>
<path fill="none" stroke="black" d="M650.949,-371.873C651.828,-354.521 653,-326.903 653,-303 653,-303 653,-303 653,-105 653,-67.8986 692.865,-43.6752 722.993,-30.6661"/>
<polygon fill="black" stroke="black" points="724.437,-33.8571 732.37,-26.8343 721.789,-27.3773 724.437,-33.8571"/>
<text text-anchor="middle" x="672" y="-210.3" font-family="Times New Roman,serif" font-size="14.00">0.6056</text>
</g>
<!-- doHome&#45;&gt;doVehicleQuotes -->
<g id="edge44" class="edge"><title>doHome&#45;&gt;doVehicleQuotes</title>
<path fill="none" stroke="black" d="M1062.32,-306.625C1084.03,-310.725 1111.74,-319.45 1129,-338 1145.01,-355.207 1143,-365.495 1143,-389 1143,-715 1143,-715 1143,-715 1143,-747.252 1150.24,-762.641 1128,-786 1110.79,-804.082 1085.44,-813.232 1061.49,-817.729"/>
<polygon fill="black" stroke="black" points="1060.64,-814.321 1051.33,-819.385 1061.77,-821.23 1060.64,-814.321"/>
<text text-anchor="middle" x="1223" y="-548.3" font-family="Times New Roman,serif" font-size="14.00">0.3395; n(9269082 9366895)</text>
</g>
<!-- doHome&#45;&gt;doInventory -->
<g id="edge46" class="edge"><title>doHome&#45;&gt;doInventory</title>
<path fill="none" stroke="black" d="M1037.17,-283.595C1042.78,-272.215 1051.7,-258.022 1064,-250 1102.93,-224.614 1121.4,-240.95 1167,-232 1175.31,-230.369 1184.09,-228.549 1192.66,-226.722"/>
<polygon fill="black" stroke="black" points="1193.52,-230.115 1202.56,-224.585 1192.05,-223.272 1193.52,-230.115"/>
<text text-anchor="middle" x="1144" y="-254.3" font-family="Times New Roman,serif" font-size="14.00">0.1191; n(9800073 9620580)</text>
</g>
<!-- doLogout -->
<g id="node15" class="node"><title>doLogout</title>
<text text-anchor="middle" x="909" y="-156.3" font-family="Times New Roman,serif" font-size="14.00">doLogout</text>
</g>
<!-- doHome&#45;&gt;doLogout -->
<g id="edge48" class="edge"><title>doHome&#45;&gt;doLogout</title>
<path fill="none" stroke="black" d="M997.508,-289.044C992.036,-287.228 986.385,-285.472 981,-284 942.071,-273.362 917.552,-297.237 892,-266 874.096,-244.113 883.693,-210.843 894.297,-187.637"/>
<polygon fill="black" stroke="black" points="897.579,-188.892 898.826,-178.371 891.29,-185.818 897.579,-188.892"/>
<text text-anchor="middle" x="941.5" y="-254.3" font-family="Times New Roman,serif" font-size="14.00">0.007; n(763 282)</text>
</g>
<!-- doHome&#45;&gt;$ -->
<g id="edge50" class="edge"><title>doHome&#45;&gt;$</title>
<path fill="none" stroke="black" d="M1022.31,-283.961C1008.85,-254.495 979.698,-192.343 951,-142 936.836,-117.153 931.791,-111.846 916,-88 905.927,-72.789 907.921,-64.4973 893,-54 863.406,-33.1799 822.473,-24.7321 793.069,-21.3115"/>
<polygon fill="black" stroke="black" points="793.104,-17.797 782.801,-20.2651 792.394,-24.7609 793.104,-17.797"/>
<text text-anchor="middle" x="989" y="-156.3" font-family="Times New Roman,serif" font-size="14.00">0.5344</text>
</g>
<!-- doClearCart -->
<g id="node11" class="node"><title>doClearCart</title>
<text text-anchor="middle" x="480" y="-494.3" font-family="Times New Roman,serif" font-size="14.00">doClearCart</text>
</g>
<!-- doShoppingCart&#45;&gt;doClearCart -->
<g id="edge52" class="edge"><title>doShoppingCart&#45;&gt;doClearCart</title>
<path fill="none" stroke="black" d="M605.99,-601.754C559.071,-597.708 496.776,-588.866 481,-570 471.073,-558.128 470.641,-540.828 472.779,-526.276"/>
<polygon fill="black" stroke="black" points="476.25,-526.764 474.691,-516.284 469.374,-525.448 476.25,-526.764"/>
<text text-anchor="middle" x="547.5" y="-548.3" font-family="Times New Roman,serif" font-size="14.00">0.3121; n(10722 44601)</text>
</g>
<!-- doRemoveFromShoppingCart -->
<g id="node17" class="node"><title>doRemoveFromShoppingCart</title>
<text text-anchor="middle" x="765" y="-494.3" font-family="Times New Roman,serif" font-size="14.00">doRemoveFromShoppingCart</text>
</g>
<!-- doShoppingCart&#45;&gt;doRemoveFromShoppingCart -->
<g id="edge54" class="edge"><title>doShoppingCart&#45;&gt;doRemoveFromShoppingCart</title>
<path fill="none" stroke="black" d="M656.097,-587.783C652.767,-572.223 650.763,-549.455 662,-534 665.332,-529.417 669.297,-525.428 673.702,-521.956"/>
<polygon fill="black" stroke="black" points="675.777,-524.777 682.063,-516.249 671.831,-518.996 675.777,-524.777"/>
<text text-anchor="middle" x="725" y="-548.3" font-family="Times New Roman,serif" font-size="14.00">0.1102; n(4820 36495)</text>
</g>
<!-- doShoppingCart&#45;&gt;$ -->
<g id="edge56" class="edge"><title>doShoppingCart&#45;&gt;$</title>
<path fill="none" stroke="black" d="M649.681,-587.732C640.208,-573.323 626.306,-552.268 614,-534 587.208,-494.227 553,-492.955 553,-445 553,-445 553,-445 553,-105 553,-33.8686 659.98,-20.6905 718.617,-18.8098"/>
<polygon fill="black" stroke="black" points="718.704,-22.3089 728.623,-18.5832 718.546,-15.3107 718.704,-22.3089"/>
<text text-anchor="middle" x="572" y="-298.3" font-family="Times New Roman,serif" font-size="14.00">0.5777</text>
</g>
<!-- doClearCart&#45;&gt;doVehicleQuotes -->
<g id="edge58" class="edge"><title>doClearCart&#45;&gt;doVehicleQuotes</title>
<path fill="none" stroke="black" d="M437.686,-503.135C398.42,-507.951 344.119,-517.442 331,-534 290.946,-584.553 304.723,-631.101 349,-678 428.076,-761.76 779.753,-802.049 928.361,-815.57"/>
<polygon fill="black" stroke="black" points="928.43,-819.09 938.703,-816.498 929.056,-812.118 928.43,-819.09"/>
<text text-anchor="middle" x="415.5" y="-656.3" font-family="Times New Roman,serif" font-size="14.00">0.4024; n(12099 56691)</text>
</g>
<!-- doClearCart&#45;&gt;$ -->
<g id="edge60" class="edge"><title>doClearCart&#45;&gt;$</title>
<path fill="none" stroke="black" d="M482.627,-479.789C485.59,-458.857 490,-422.424 490,-391 490,-391 490,-391 490,-105 490,-73.5667 511.157,-68.5892 539,-54 569.659,-37.9351 665.831,-27.0631 719.274,-22.0912"/>
<polygon fill="black" stroke="black" points="719.718,-25.5654 729.361,-21.1757 719.085,-18.594 719.718,-25.5654"/>
<text text-anchor="middle" x="509" y="-254.3" font-family="Times New Roman,serif" font-size="14.00">0.5976</text>
</g>
<!-- doPurchase&#45;&gt;doHome -->
<g id="edge62" class="edge"><title>doPurchase&#45;&gt;doHome</title>
<path fill="none" stroke="black" d="M919.881,-371.896C921.92,-360.938 926.166,-347.114 935,-338 948.934,-323.624 969.276,-315.111 987.565,-310.091"/>
<polygon fill="black" stroke="black" points="988.592,-313.443 997.461,-307.646 986.913,-306.647 988.592,-313.443"/>
<text text-anchor="middle" x="1001.5" y="-342.3" font-family="Times New Roman,serif" font-size="14.00">0.4203; n(22672 64467)</text>
</g>
<!-- doPurchase&#45;&gt;$ -->
<g id="edge64" class="edge"><title>doPurchase&#45;&gt;$</title>
<path fill="none" stroke="black" d="M908.111,-371.713C902.231,-361.701 894.481,-348.951 887,-338 853.554,-289.042 831.337,-285.605 806,-232 776.423,-169.424 763.619,-88.0155 758.695,-46.2872"/>
<polygon fill="black" stroke="black" points="762.145,-45.643 757.558,-36.0929 755.189,-46.4194 762.145,-45.643"/>
<text text-anchor="middle" x="825" y="-210.3" font-family="Times New Roman,serif" font-size="14.00">0.5797</text>
</g>
<!-- doInventory&#45;&gt;doHome -->
<g id="edge66" class="edge"><title>doInventory&#45;&gt;doHome</title>
<path fill="none" stroke="black" d="M1242.28,-232.226C1239.58,-243.526 1234.28,-257.698 1224,-266 1201.26,-284.368 1122.46,-293.808 1072.56,-298.056"/>
<polygon fill="black" stroke="black" points="1072.07,-294.584 1062.39,-298.885 1072.64,-301.561 1072.07,-294.584"/>
<text text-anchor="middle" x="1292" y="-254.3" font-family="Times New Roman,serif" font-size="14.00">0.0517; n(1090 520)</text>
</g>
<!-- doInventory&#45;&gt;doInventory -->
<g id="edge68" class="edge"><title>doInventory&#45;&gt;doInventory</title>
<path fill="none" stroke="black" d="M1287.33,-222.104C1297.48,-221.471 1305,-218.77 1305,-214 1305,-211.019 1302.06,-208.846 1297.38,-207.481"/>
<polygon fill="black" stroke="black" points="1297.75,-203.996 1287.33,-205.896 1296.66,-210.911 1297.75,-203.996"/>
<text text-anchor="middle" x="1371.5" y="-210.3" font-family="Times New Roman,serif" font-size="14.00">0.1615; n(21819 84525)</text>
</g>
<!-- doSell -->
<g id="node14" class="node"><title>doSell</title>
<text text-anchor="middle" x="998" y="-102.3" font-family="Times New Roman,serif" font-size="14.00">doSell</text>
</g>
<!-- doInventory&#45;&gt;doSell -->
<g id="edge70" class="edge"><title>doInventory&#45;&gt;doSell</title>
<path fill="none" stroke="black" d="M1202.56,-203.428C1191.04,-200.918 1178.56,-198.278 1167,-196 1121.84,-187.097 1103.29,-203.553 1065,-178 1049.21,-167.461 1054.71,-156.102 1042,-142 1038.5,-138.112 1034.53,-134.318 1030.45,-130.748"/>
<polygon fill="black" stroke="black" points="1032.48,-127.885 1022.55,-124.194 1028.01,-133.272 1032.48,-127.885"/>
<text text-anchor="middle" x="1131.5" y="-156.3" font-family="Times New Roman,serif" font-size="14.00">0.1834; n(22815 85045)</text>
</g>
<!-- doCancelOrder -->
<g id="node16" class="node"><title>doCancelOrder</title>
<text text-anchor="middle" x="1320" y="-102.3" font-family="Times New Roman,serif" font-size="14.00">doCancelOrder</text>
</g>
<!-- doInventory&#45;&gt;doCancelOrder -->
<g id="edge72" class="edge"><title>doInventory&#45;&gt;doCancelOrder</title>
<path fill="none" stroke="black" d="M1287.27,-206.929C1320.07,-201.252 1361.64,-191.6 1372,-178 1381.69,-165.272 1379.52,-156.123 1372,-142 1369.81,-137.89 1366.9,-134.177 1363.58,-130.842"/>
<polygon fill="black" stroke="black" points="1365.61,-127.979 1355.74,-124.139 1361.06,-133.299 1365.61,-127.979"/>
<text text-anchor="middle" x="1442" y="-156.3" font-family="Times New Roman,serif" font-size="14.00">0.0736; n(4308 18794)</text>
</g>
<!-- doInventory&#45;&gt;$ -->
<g id="edge74" class="edge"><title>doInventory&#45;&gt;$</title>
<path fill="none" stroke="black" d="M1237.77,-195.818C1223.92,-163.259 1194.21,-95.1717 1185,-88 1123.96,-40.4799 885.371,-24.8141 792.901,-20.4629"/>
<polygon fill="black" stroke="black" points="793.027,-16.9651 782.879,-20.0091 792.71,-23.958 793.027,-16.9651"/>
<text text-anchor="middle" x="1225" y="-102.3" font-family="Times New Roman,serif" font-size="14.00">0.5299</text>
</g>
<!-- doSell&#45;&gt;doHome -->
<g id="edge76" class="edge"><title>doSell&#45;&gt;doHome</title>
<path fill="none" stroke="black" d="M1007.93,-124.32C1010.66,-129.812 1013.32,-136.016 1015,-142 1027.58,-186.9 1030.1,-241.424 1030.36,-273.552"/>
<polygon fill="black" stroke="black" points="1026.86,-273.931 1030.36,-283.929 1033.86,-273.926 1026.86,-273.931"/>
<text text-anchor="middle" x="1095.5" y="-210.3" font-family="Times New Roman,serif" font-size="14.00">0.1594; n(22671 86755)</text>
</g>
<!-- doSell&#45;&gt;doSell -->
<g id="edge78" class="edge"><title>doSell&#45;&gt;doSell</title>
<path fill="none" stroke="black" d="M1025.24,-114.242C1035.02,-114.419 1043,-111.672 1043,-106 1043,-102.544 1040.04,-100.173 1035.51,-98.8891"/>
<polygon fill="black" stroke="black" points="1035.56,-95.3739 1025.24,-97.7581 1034.8,-102.332 1035.56,-95.3739"/>
<text text-anchor="middle" x="1109.5" y="-102.3" font-family="Times New Roman,serif" font-size="14.00">0.3088; n(31336 93353)</text>
</g>
<!-- doSell&#45;&gt;$ -->
<g id="edge80" class="edge"><title>doSell&#45;&gt;$</title>
<path fill="none" stroke="black" d="M988.504,-87.56C981.362,-76.1642 970.503,-61.9666 957,-54 929.801,-37.9523 842.971,-27.2793 792.779,-22.2796"/>
<polygon fill="black" stroke="black" points="792.95,-18.7798 782.659,-21.2989 792.275,-25.7472 792.95,-18.7798"/>
<text text-anchor="middle" x="994" y="-58.3" font-family="Times New Roman,serif" font-size="14.00">0.5319</text>
</g>
<!-- doLogout&#45;&gt;$ -->
<g id="edge82" class="edge"><title>doLogout&#45;&gt;$</title>
<path fill="none" stroke="black" d="M907.671,-141.925C904.955,-118.779 896.737,-77.6306 872,-54 850.743,-33.6945 818.127,-25.1283 792.888,-21.5356"/>
<polygon fill="black" stroke="black" points="793.276,-18.057 782.925,-20.3161 792.426,-25.0052 793.276,-18.057"/>
<text text-anchor="middle" x="908.5" y="-102.3" font-family="Times New Roman,serif" font-size="14.00">1</text>
</g>
<!-- doCancelOrder&#45;&gt;doInventory -->
<g id="edge84" class="edge"><title>doCancelOrder&#45;&gt;doInventory</title>
<path fill="none" stroke="black" d="M1268.44,-120.137C1257.99,-125.236 1248.29,-132.281 1242,-142 1233.77,-154.71 1234.12,-171.55 1236.72,-185.639"/>
<polygon fill="black" stroke="black" points="1233.39,-186.796 1239.03,-195.764 1240.21,-185.235 1233.39,-186.796"/>
<text text-anchor="middle" x="1305" y="-156.3" font-family="Times New Roman,serif" font-size="14.00">0.3705; n(5650 19607)</text>
</g>
<!-- doCancelOrder&#45;&gt;$ -->
<g id="edge86" class="edge"><title>doCancelOrder&#45;&gt;$</title>
<path fill="none" stroke="black" d="M1295.34,-87.8383C1277.08,-76.1005 1251.12,-61.3785 1226,-54 1145.03,-30.2156 889.415,-22.0368 793.154,-19.7566"/>
<polygon fill="black" stroke="black" points="793.096,-16.2544 783.018,-19.5245 792.935,-23.2526 793.096,-16.2544"/>
<text text-anchor="middle" x="1283" y="-58.3" font-family="Times New Roman,serif" font-size="14.00">0.6295</text>
</g>
<!-- doRemoveFromShoppingCart&#45;&gt;doDeferedPurchase -->
<g id="edge88" class="edge"><title>doRemoveFromShoppingCart&#45;&gt;doDeferedPurchase</title>
<path fill="none" stroke="black" d="M671.653,-482.7C650.235,-477.462 631.746,-470.639 625,-462 614.744,-448.864 620.91,-431.195 629.683,-416.771"/>
<polygon fill="black" stroke="black" points="632.712,-418.537 635.358,-408.278 626.892,-414.648 632.712,-418.537"/>
<text text-anchor="middle" x="688" y="-440.3" font-family="Times New Roman,serif" font-size="14.00">0.0423; n(7594 39612)</text>
</g>
<!-- doRemoveFromShoppingCart&#45;&gt;doShoppingCart -->
<g id="edge90" class="edge"><title>doRemoveFromShoppingCart&#45;&gt;doShoppingCart</title>
<path fill="none" stroke="black" d="M778.803,-516.272C789.312,-531.657 800.091,-554.126 788,-570 779.947,-580.573 753.028,-588.76 726.034,-594.548"/>
<polygon fill="black" stroke="black" points="725.218,-591.142 716.12,-596.572 726.618,-598.001 725.218,-591.142"/>
<text text-anchor="middle" x="857" y="-548.3" font-family="Times New Roman,serif" font-size="14.00">0.0867; n(1766 10380)</text>
</g>
<!-- doRemoveFromShoppingCart&#45;&gt;doPurchase -->
<g id="edge92" class="edge"><title>doRemoveFromShoppingCart&#45;&gt;doPurchase</title>
<path fill="none" stroke="black" d="M772.231,-479.986C779.888,-463.903 793.442,-440.181 812,-426 827.925,-413.831 848.281,-405.783 866.89,-400.511"/>
<polygon fill="black" stroke="black" points="867.935,-403.855 876.718,-397.93 866.157,-397.085 867.935,-403.855"/>
<text text-anchor="middle" x="878.5" y="-440.3" font-family="Times New Roman,serif" font-size="14.00">0.0544; n(15424 99546)</text>
</g>
<!-- doRemoveFromShoppingCart&#45;&gt;$ -->
<g id="edge94" class="edge"><title>doRemoveFromShoppingCart&#45;&gt;$</title>
<path fill="none" stroke="black" d="M761.856,-479.731C759.17,-465.321 755.1,-444.266 751,-426 738.654,-370.992 720,-359.376 720,-303 720,-303 720,-303 720,-105 720,-83.0807 730.074,-60.2861 739.564,-43.676"/>
<polygon fill="black" stroke="black" points="742.832,-45.0342 745.003,-34.6642 736.839,-41.4169 742.832,-45.0342"/>
<text text-anchor="middle" x="739" y="-254.3" font-family="Times New Roman,serif" font-size="14.00">0.8167</text>
</g>
</g>
</svg>
