<?xml version="1.0" encoding="UTF-8" standalone="no"?>
<!DOCTYPE svg PUBLIC "-//W3C//DTD SVG 1.1//EN"
 "http://www.w3.org/Graphics/SVG/1.1/DTD/svg11.dtd">
<!-- Generated by graphviz version 2.28.0 (20110507.0327)
 -->
<!-- Title: G Pages: 1 -->
<svg width="1295pt" height="936pt"
 viewBox="0.00 0.00 1295.00 936.00" xmlns="http://www.w3.org/2000/svg" xmlns:xlink="http://www.w3.org/1999/xlink">
<g id="graph1" class="graph" transform="scale(1 1) rotate(0) translate(4 932)">
<title>G</title>
<polygon fill="white" stroke="white" points="-4,5 -4,-932 1292,-932 1292,5 -4,5"/>
<!-- _init* -->
<g id="node1" class="node"><title>_init*</title>
<text text-anchor="middle" x="244" y="-906.3" font-family="Times New Roman,serif" font-size="14.00">_init*</text>
</g>
<!-- doSupplierSetAllURLs -->
<g id="node2" class="node"><title>doSupplierSetAllURLs</title>
<text text-anchor="middle" x="73" y="-764.3" font-family="Times New Roman,serif" font-size="14.00">doSupplierSetAllURLs</text>
</g>
<!-- _init*&#45;&gt;doSupplierSetAllURLs -->
<g id="edge2" class="edge"><title>_init*&#45;&gt;doSupplierSetAllURLs</title>
<path fill="none" stroke="black" d="M216.978,-908.247C188.824,-906.079 144.991,-898.622 117,-874 94.1183,-853.873 82.8384,-819.902 77.4853,-796.064"/>
<polygon fill="black" stroke="black" points="80.9066,-795.324 75.4798,-786.225 74.0476,-796.723 80.9066,-795.324"/>
<text text-anchor="middle" x="132.5" y="-862.3" font-family="Times New Roman,serif" font-size="14.00">0.002</text>
</g>
<!-- doAtomicityTests -->
<g id="node3" class="node"><title>doAtomicityTests</title>
<text text-anchor="middle" x="147" y="-656.3" font-family="Times New Roman,serif" font-size="14.00">doAtomicityTests</text>
</g>
<!-- _init*&#45;&gt;doAtomicityTests -->
<g id="edge4" class="edge"><title>_init*&#45;&gt;doAtomicityTests</title>
<path fill="none" stroke="black" d="M220.41,-891.856C205.066,-879.318 186.094,-860.9 176,-840 152.052,-790.417 147.291,-725.03 146.677,-688.579"/>
<polygon fill="black" stroke="black" points="150.175,-688.22 146.603,-678.246 143.175,-688.271 150.175,-688.22"/>
<text text-anchor="middle" x="191.5" y="-818.3" font-family="Times New Roman,serif" font-size="14.00">0.002</text>
</g>
<!-- doCacheTest -->
<g id="node4" class="node"><title>doCacheTest</title>
<text text-anchor="middle" x="208" y="-548.3" font-family="Times New Roman,serif" font-size="14.00">doCacheTest</text>
</g>
<!-- _init*&#45;&gt;doCacheTest -->
<g id="edge6" class="edge"><title>_init*&#45;&gt;doCacheTest</title>
<path fill="none" stroke="black" d="M236.596,-891.9C229.872,-874.798 221,-847.574 221,-823 221,-823 221,-823 221,-659 221,-632.036 216.805,-601.5 213.181,-580.151"/>
<polygon fill="black" stroke="black" points="216.605,-579.416 211.416,-570.179 209.712,-580.636 216.605,-579.416"/>
<text text-anchor="middle" x="236.5" y="-764.3" font-family="Times New Roman,serif" font-size="14.00">0.002</text>
</g>
<!-- doLogin -->
<g id="node5" class="node"><title>doLogin</title>
<text text-anchor="middle" x="297" y="-440.3" font-family="Times New Roman,serif" font-size="14.00">doLogin</text>
</g>
<!-- _init*&#45;&gt;doLogin -->
<g id="edge8" class="edge"><title>_init*&#45;&gt;doLogin</title>
<path fill="none" stroke="black" d="M251.404,-891.9C258.128,-874.798 267,-847.574 267,-823 267,-823 267,-823 267,-659 267,-591.156 281.97,-512.375 290.761,-471.963"/>
<polygon fill="black" stroke="black" points="294.203,-472.605 292.954,-462.084 287.37,-471.088 294.203,-472.605"/>
<text text-anchor="middle" x="282.5" y="-710.3" font-family="Times New Roman,serif" font-size="14.00">0.498</text>
</g>
<!-- doVehicleQuotes -->
<g id="node6" class="node"><title>doVehicleQuotes</title>
<text text-anchor="middle" x="834" y="-818.3" font-family="Times New Roman,serif" font-size="14.00">doVehicleQuotes</text>
</g>
<!-- _init*&#45;&gt;doVehicleQuotes -->
<g id="edge10" class="edge"><title>_init*&#45;&gt;doVehicleQuotes</title>
<path fill="none" stroke="black" d="M271.274,-905.025C359.425,-892.175 638.413,-851.509 767.405,-832.707"/>
<polygon fill="black" stroke="black" points="768.157,-836.134 777.548,-831.229 767.148,-829.208 768.157,-836.134"/>
<text text-anchor="middle" x="611" y="-862.3" font-family="Times New Roman,serif" font-size="14.00">0.3685</text>
</g>
<!-- doInventory -->
<g id="node13" class="node"><title>doInventory</title>
<text text-anchor="middle" x="1044" y="-210.3" font-family="Times New Roman,serif" font-size="14.00">doInventory</text>
</g>
<!-- _init*&#45;&gt;doInventory -->
<g id="edge12" class="edge"><title>_init*&#45;&gt;doInventory</title>
<path fill="none" stroke="black" d="M271.141,-908.138C431.59,-902.868 1249,-873.538 1249,-823 1249,-823 1249,-823 1249,-443 1249,-339.079 1199.94,-312.613 1117,-250 1110.53,-245.118 1103.28,-240.659 1095.91,-236.681"/>
<polygon fill="black" stroke="black" points="1097.08,-233.345 1086.58,-231.904 1093.89,-239.576 1097.08,-233.345"/>
<text text-anchor="middle" x="1268" y="-548.3" font-family="Times New Roman,serif" font-size="14.00">0.1275</text>
</g>
<!-- $ -->
<g id="node25" class="node"><title>$</title>
<ellipse fill="none" stroke="black" cx="634" cy="-18" rx="27" ry="18"/>
<text text-anchor="middle" x="634" y="-14.3" font-family="Times New Roman,serif" font-size="14.00">$</text>
</g>
<!-- doSupplierSetAllURLs&#45;&gt;$ -->
<g id="edge14" class="edge"><title>doSupplierSetAllURLs&#45;&gt;$</title>
<path fill="none" stroke="black" d="M73,-749.742C73,-728.763 73,-692.285 73,-661 73,-661 73,-661 73,-105 73,-58.637 119.607,-67.3721 164,-54 244.801,-29.661 500.521,-21.8213 596.827,-19.6938"/>
<polygon fill="black" stroke="black" points="597.045,-23.1901 606.968,-19.4781 596.896,-16.1917 597.045,-23.1901"/>
<text text-anchor="middle" x="76.5" y="-386.3" font-family="Times New Roman,serif" font-size="14.00">1</text>
</g>
<!-- doAtomicityTests&#45;&gt;$ -->
<g id="edge16" class="edge"><title>doAtomicityTests&#45;&gt;$</title>
<path fill="none" stroke="black" d="M147,-641.742C147,-620.763 147,-584.285 147,-553 147,-553 147,-553 147,-105 147,-56.2933 197.282,-67.7774 244,-54 309.578,-34.6605 512.878,-24.1042 596.989,-20.4684"/>
<polygon fill="black" stroke="black" points="597.264,-23.9599 607.107,-20.0397 596.968,-16.9662 597.264,-23.9599"/>
<text text-anchor="middle" x="150.5" y="-342.3" font-family="Times New Roman,serif" font-size="14.00">1</text>
</g>
<!-- doCacheTest&#45;&gt;$ -->
<g id="edge18" class="edge"><title>doCacheTest&#45;&gt;$</title>
<path fill="none" stroke="black" d="M210.89,-533.798C214.149,-512.876 219,-476.453 219,-445 219,-445 219,-445 219,-105 219,-28.2504 494.593,-19.4781 596.612,-18.8601"/>
<polygon fill="black" stroke="black" points="596.784,-22.3596 606.771,-18.8225 596.758,-15.3596 596.784,-22.3596"/>
<text text-anchor="middle" x="222.5" y="-298.3" font-family="Times New Roman,serif" font-size="14.00">1</text>
</g>
<!-- doLogin&#45;&gt;$ -->
<g id="edge20" class="edge"><title>doLogin&#45;&gt;$</title>
<path fill="none" stroke="black" d="M298.157,-425.666C299.338,-406.448 301,-374.524 301,-347 301,-347 301,-347 301,-105 301,-68.2802 332.144,-68.2173 366,-54 406.879,-36.8333 533.448,-25.9386 596.918,-21.4108"/>
<polygon fill="black" stroke="black" points="597.174,-24.9015 606.906,-20.7138 596.686,-17.9185 597.174,-24.9015"/>
<text text-anchor="middle" x="304.5" y="-254.3" font-family="Times New Roman,serif" font-size="14.00">1</text>
</g>
<!-- doVehicleQuotes&#45;&gt;doVehicleQuotes -->
<g id="edge22" class="edge"><title>doVehicleQuotes&#45;&gt;doVehicleQuotes</title>
<path fill="none" stroke="black" d="M890.463,-829.797C900.77,-828.81 908,-826.211 908,-822 908,-819.368 905.176,-817.366 900.541,-815.994"/>
<polygon fill="black" stroke="black" points="900.921,-812.506 890.463,-814.203 899.696,-819.398 900.921,-812.506"/>
<text text-anchor="middle" x="954" y="-818.3" font-family="Times New Roman,serif" font-size="14.00">0.3885; n(12 56)</text>
</g>
<!-- doAddToShoppingCart -->
<g id="node7" class="node"><title>doAddToShoppingCart</title>
<text text-anchor="middle" x="757" y="-710.3" font-family="Times New Roman,serif" font-size="14.00">doAddToShoppingCart</text>
</g>
<!-- doVehicleQuotes&#45;&gt;doAddToShoppingCart -->
<g id="edge24" class="edge"><title>doVehicleQuotes&#45;&gt;doAddToShoppingCart</title>
<path fill="none" stroke="black" d="M832.098,-803.989C829.645,-788.571 824.141,-765.896 812,-750 808.651,-745.615 804.583,-741.631 800.191,-738.054"/>
<polygon fill="black" stroke="black" points="802.154,-735.153 792.022,-732.057 798.012,-740.796 802.154,-735.153"/>
<text text-anchor="middle" x="874" y="-764.3" font-family="Times New Roman,serif" font-size="14.00">0.0737; n(13 60)</text>
</g>
<!-- doHome -->
<g id="node9" class="node"><title>doHome</title>
<text text-anchor="middle" x="869" y="-298.3" font-family="Times New Roman,serif" font-size="14.00">doHome</text>
</g>
<!-- doVehicleQuotes&#45;&gt;doHome -->
<g id="edge26" class="edge"><title>doVehicleQuotes&#45;&gt;doHome</title>
<path fill="none" stroke="black" d="M890.502,-820.705C963.967,-816.998 1083,-798.16 1083,-715 1083,-715 1083,-715 1083,-389 1083,-315.948 974.308,-303.341 911.848,-302.127"/>
<polygon fill="black" stroke="black" points="911.537,-298.624 901.502,-302.021 911.466,-305.623 911.537,-298.624"/>
<text text-anchor="middle" x="1129" y="-548.3" font-family="Times New Roman,serif" font-size="14.00">0.0299; n(10 45)</text>
</g>
<!-- doVehicleQuotes&#45;&gt;$ -->
<g id="edge28" class="edge"><title>doVehicleQuotes&#45;&gt;$</title>
<path fill="none" stroke="black" d="M890.409,-815.963C990.792,-805.429 1190,-776.746 1190,-715 1190,-715 1190,-715 1190,-443 1190,-356.12 1256,-345.88 1256,-259 1256,-259 1256,-259 1256,-105 1256,-45.6285 805.57,-25.0266 671.322,-20.2048"/>
<polygon fill="black" stroke="black" points="671.243,-16.7 661.127,-19.8474 670.998,-23.6957 671.243,-16.7"/>
<text text-anchor="middle" x="1224.5" y="-386.3" font-family="Times New Roman,serif" font-size="14.00">0.508</text>
</g>
<!-- doAddToShoppingCart&#45;&gt;doVehicleQuotes -->
<g id="edge30" class="edge"><title>doAddToShoppingCart&#45;&gt;doVehicleQuotes</title>
<path fill="none" stroke="black" d="M729.955,-732.242C724.315,-737.233 719.135,-743.201 716,-750 709.3,-764.529 706.429,-773.178 716,-786 728.247,-802.407 747.855,-811.435 767.6,-816.31"/>
<polygon fill="black" stroke="black" points="767.074,-819.776 777.584,-818.441 768.535,-812.93 767.074,-819.776"/>
<text text-anchor="middle" x="762" y="-764.3" font-family="Times New Roman,serif" font-size="14.00">0.2976; n(13 59)</text>
</g>
<!-- doDeferedPurchase -->
<g id="node8" class="node"><title>doDeferedPurchase</title>
<text text-anchor="middle" x="534" y="-386.3" font-family="Times New Roman,serif" font-size="14.00">doDeferedPurchase</text>
</g>
<!-- doAddToShoppingCart&#45;&gt;doDeferedPurchase -->
<g id="edge32" class="edge"><title>doAddToShoppingCart&#45;&gt;doDeferedPurchase</title>
<path fill="none" stroke="black" d="M681.387,-712.903C581.341,-708.167 408.398,-682.969 329,-570 319.8,-556.91 318.818,-546.342 329,-534 355.792,-501.525 385.375,-536.761 422,-516 464.316,-492.013 499.069,-446.157 518.129,-417.153"/>
<polygon fill="black" stroke="black" points="521.304,-418.685 523.755,-408.377 515.411,-414.907 521.304,-418.685"/>
<text text-anchor="middle" x="371.5" y="-548.3" font-family="Times New Roman,serif" font-size="14.00">0.0563; n(8 42)</text>
</g>
<!-- doShoppingCart -->
<g id="node10" class="node"><title>doShoppingCart</title>
<text text-anchor="middle" x="580" y="-602.3" font-family="Times New Roman,serif" font-size="14.00">doShoppingCart</text>
</g>
<!-- doAddToShoppingCart&#45;&gt;doShoppingCart -->
<g id="edge34" class="edge"><title>doAddToShoppingCart&#45;&gt;doShoppingCart</title>
<path fill="none" stroke="black" d="M722.93,-695.97C712.273,-690.44 700.547,-684.141 690,-678 663.759,-662.72 634.949,-644.053 613.399,-629.694"/>
<polygon fill="black" stroke="black" points="615.187,-626.68 604.93,-624.025 611.293,-632.497 615.187,-626.68"/>
<text text-anchor="middle" x="736" y="-656.3" font-family="Times New Roman,serif" font-size="14.00">0.0587; n(11 55)</text>
</g>
<!-- doPurchase -->
<g id="node12" class="node"><title>doPurchase</title>
<text text-anchor="middle" x="757" y="-386.3" font-family="Times New Roman,serif" font-size="14.00">doPurchase</text>
</g>
<!-- doAddToShoppingCart&#45;&gt;doPurchase -->
<g id="edge36" class="edge"><title>doAddToShoppingCart&#45;&gt;doPurchase</title>
<path fill="none" stroke="black" d="M772.578,-695.649C776.414,-690.349 779.995,-684.258 782,-678 799.09,-624.671 799.09,-479.329 782,-426 780.997,-422.871 779.601,-419.784 777.975,-416.816"/>
<polygon fill="black" stroke="black" points="780.905,-414.901 772.578,-408.351 775.003,-418.665 780.905,-414.901"/>
<text text-anchor="middle" x="841" y="-548.3" font-family="Times New Roman,serif" font-size="14.00">0.0695; n(11 51)</text>
</g>
<!-- doAddToShoppingCart&#45;&gt;$ -->
<g id="edge38" class="edge"><title>doAddToShoppingCart&#45;&gt;$</title>
<path fill="none" stroke="black" d="M782.283,-695.825C814.676,-672.04 869.025,-625.65 889,-570 911.409,-507.572 956.308,-462.486 866,-338 854.79,-322.547 843.221,-330.066 827,-320 794.503,-299.834 783.934,-295.831 760,-266 727.1,-224.994 680.211,-100.133 655,-54 653.159,-50.6305 651.156,-47.1193 649.143,-43.6773"/>
<polygon fill="black" stroke="black" points="652.02,-41.6691 643.892,-34.8729 646.008,-45.2544 652.02,-41.6691"/>
<text text-anchor="middle" x="896" y="-342.3" font-family="Times New Roman,serif" font-size="14.00">0.5179</text>
</g>
<!-- doDeferedPurchase&#45;&gt;doHome -->
<g id="edge40" class="edge"><title>doDeferedPurchase&#45;&gt;doHome</title>
<path fill="none" stroke="black" d="M573.224,-371.939C599.824,-360.93 636.015,-347.03 669,-338 722.482,-323.358 785.754,-313.495 826.59,-308.066"/>
<polygon fill="black" stroke="black" points="827.258,-311.509 836.723,-306.749 826.355,-304.567 827.258,-311.509"/>
<text text-anchor="middle" x="715" y="-342.3" font-family="Times New Roman,serif" font-size="14.00">0.3944; n(14 63)</text>
</g>
<!-- doDeferedPurchase&#45;&gt;$ -->
<g id="edge42" class="edge"><title>doDeferedPurchase&#45;&gt;$</title>
<path fill="none" stroke="black" d="M534,-371.867C534,-354.51 534,-326.889 534,-303 534,-303 534,-303 534,-105 534,-68.895 571.936,-44.6408 601.077,-31.3359"/>
<polygon fill="black" stroke="black" points="602.762,-34.4205 610.554,-27.2422 599.986,-27.9943 602.762,-34.4205"/>
<text text-anchor="middle" x="553" y="-210.3" font-family="Times New Roman,serif" font-size="14.00">0.6056</text>
</g>
<!-- doHome&#45;&gt;doVehicleQuotes -->
<g id="edge44" class="edge"><title>doHome&#45;&gt;doVehicleQuotes</title>
<path fill="none" stroke="black" d="M901.268,-316.719C910.736,-322.125 920.328,-329.185 927,-338 941.185,-356.742 941,-365.495 941,-389 941,-715 941,-715 941,-715 941,-747.447 945.333,-761.551 924,-786 917.387,-793.579 908.929,-799.528 899.856,-804.195"/>
<polygon fill="black" stroke="black" points="898.241,-801.085 890.622,-808.447 901.17,-807.443 898.241,-801.085"/>
<text text-anchor="middle" x="1000.5" y="-548.3" font-family="Times New Roman,serif" font-size="14.00">0.3395; n(9269 9366)</text>
</g>
<!-- doHome&#45;&gt;doInventory -->
<g id="edge46" class="edge"><title>doHome&#45;&gt;doInventory</title>
<path fill="none" stroke="black" d="M876.356,-283.868C882.047,-272.609 890.989,-258.449 903,-250 910.448,-244.76 954.368,-234.293 991.238,-226.165"/>
<polygon fill="black" stroke="black" points="992.392,-229.495 1001.41,-223.94 990.897,-222.657 992.392,-229.495"/>
<text text-anchor="middle" x="962.5" y="-254.3" font-family="Times New Roman,serif" font-size="14.00">0.1191; n(9800 9620)</text>
</g>
<!-- doLogout -->
<g id="node15" class="node"><title>doLogout</title>
<text text-anchor="middle" x="757" y="-156.3" font-family="Times New Roman,serif" font-size="14.00">doLogout</text>
</g>
<!-- doHome&#45;&gt;doLogout -->
<g id="edge48" class="edge"><title>doHome&#45;&gt;doLogout</title>
<path fill="none" stroke="black" d="M836.6,-292.991C812.104,-286.267 781.318,-276.156 773,-266 755.349,-244.448 752.959,-211.766 753.965,-188.596"/>
<polygon fill="black" stroke="black" points="757.473,-188.598 754.651,-178.385 750.488,-188.128 757.473,-188.598"/>
<text text-anchor="middle" x="788.5" y="-254.3" font-family="Times New Roman,serif" font-size="14.00">0.007</text>
</g>
<!-- doHome&#45;&gt;$ -->
<g id="edge50" class="edge"><title>doHome&#45;&gt;$</title>
<path fill="none" stroke="black" d="M861.268,-283.642C848.06,-254.216 820.048,-192.784 794,-142 781.47,-117.571 778.604,-111.249 764,-88 754.161,-72.3373 754.863,-65.0093 740,-54 719.431,-38.7641 691.869,-29.933 670.007,-24.9535"/>
<polygon fill="black" stroke="black" points="670.605,-21.5028 660.099,-22.8673 669.163,-28.3526 670.605,-21.5028"/>
<text text-anchor="middle" x="831" y="-156.3" font-family="Times New Roman,serif" font-size="14.00">0.5344</text>
</g>
<!-- doClearCart -->
<g id="node11" class="node"><title>doClearCart</title>
<text text-anchor="middle" x="371" y="-494.3" font-family="Times New Roman,serif" font-size="14.00">doClearCart</text>
</g>
<!-- doShoppingCart&#45;&gt;doClearCart -->
<g id="edge52" class="edge"><title>doShoppingCart&#45;&gt;doClearCart</title>
<path fill="none" stroke="black" d="M524.845,-600.699C497.55,-596.314 465.327,-587.532 441,-570 425.597,-558.899 430.937,-547.897 418,-534 414.274,-529.997 410.041,-526.133 405.678,-522.524"/>
<polygon fill="black" stroke="black" points="407.797,-519.739 397.765,-516.332 403.483,-525.251 407.797,-519.739"/>
<text text-anchor="middle" x="487" y="-548.3" font-family="Times New Roman,serif" font-size="14.00">0.3121; n(10 44)</text>
</g>
<!-- doRemoveFromShoppingCart -->
<g id="node17" class="node"><title>doRemoveFromShoppingCart</title>
<text text-anchor="middle" x="626" y="-494.3" font-family="Times New Roman,serif" font-size="14.00">doRemoveFromShoppingCart</text>
</g>
<!-- doShoppingCart&#45;&gt;doRemoveFromShoppingCart -->
<g id="edge54" class="edge"><title>doShoppingCart&#45;&gt;doRemoveFromShoppingCart</title>
<path fill="none" stroke="black" d="M576.273,-587.968C573.879,-572.948 572.594,-550.885 581,-534 582.935,-530.113 585.529,-526.53 588.499,-523.261"/>
<polygon fill="black" stroke="black" points="591.103,-525.616 595.977,-516.209 586.3,-520.523 591.103,-525.616"/>
<text text-anchor="middle" x="623.5" y="-548.3" font-family="Times New Roman,serif" font-size="14.00">0.1102; n(4 36)</text>
</g>
<!-- doShoppingCart&#45;&gt;$ -->
<g id="edge56" class="edge"><title>doShoppingCart&#45;&gt;$</title>
<path fill="none" stroke="black" d="M570.119,-587.943C561.199,-573.103 547.313,-551.32 533,-534 496.962,-490.392 442,-501.572 442,-445 442,-445 442,-445 442,-105 442,-37.9181 540.825,-22.8247 596.674,-19.651"/>
<polygon fill="black" stroke="black" points="597.072,-23.1363 606.898,-19.1751 596.746,-16.1439 597.072,-23.1363"/>
<text text-anchor="middle" x="461" y="-298.3" font-family="Times New Roman,serif" font-size="14.00">0.5777</text>
</g>
<!-- doClearCart&#45;&gt;doVehicleQuotes -->
<g id="edge58" class="edge"><title>doClearCart&#45;&gt;doVehicleQuotes</title>
<path fill="none" stroke="black" d="M334.788,-516.132C328.114,-520.962 321.998,-526.887 318,-534 279.017,-603.352 299.041,-658.362 314,-678 369.102,-750.336 639.951,-795.227 767.429,-812.677"/>
<polygon fill="black" stroke="black" points="767.084,-816.163 777.463,-814.035 768.023,-809.226 767.084,-816.163"/>
<text text-anchor="middle" x="360" y="-656.3" font-family="Times New Roman,serif" font-size="14.00">0.4024; n(12 56)</text>
</g>
<!-- doClearCart&#45;&gt;$ -->
<g id="edge60" class="edge"><title>doClearCart&#45;&gt;$</title>
<path fill="none" stroke="black" d="M373.365,-479.78C376.031,-458.839 380,-422.397 380,-391 380,-391 380,-391 380,-105 380,-73.873 400.565,-68.7039 428,-54 481.76,-25.1874 553.764,-19.1243 596.857,-18.3565"/>
<polygon fill="black" stroke="black" points="596.932,-21.856 606.9,-18.2648 596.868,-14.8563 596.932,-21.856"/>
<text text-anchor="middle" x="399" y="-254.3" font-family="Times New Roman,serif" font-size="14.00">0.5976</text>
</g>
<!-- doPurchase&#45;&gt;doHome -->
<g id="edge62" class="edge"><title>doPurchase&#45;&gt;doHome</title>
<path fill="none" stroke="black" d="M758.881,-371.896C760.92,-360.938 765.166,-347.114 774,-338 787.934,-323.624 808.276,-315.111 826.565,-310.091"/>
<polygon fill="black" stroke="black" points="827.592,-313.443 836.461,-307.646 825.913,-306.647 827.592,-313.443"/>
<text text-anchor="middle" x="820" y="-342.3" font-family="Times New Roman,serif" font-size="14.00">0.4203; n(22 64)</text>
</g>
<!-- doPurchase&#45;&gt;$ -->
<g id="edge64" class="edge"><title>doPurchase&#45;&gt;$</title>
<path fill="none" stroke="black" d="M747.116,-371.654C731.319,-343.279 700.302,-284.802 682,-232 659.436,-166.902 644.716,-86.871 638.076,-45.9271"/>
<polygon fill="black" stroke="black" points="641.513,-45.2538 636.49,-35.9256 634.6,-46.3504 641.513,-45.2538"/>
<text text-anchor="middle" x="701" y="-210.3" font-family="Times New Roman,serif" font-size="14.00">0.5797</text>
</g>
<!-- doInventory&#45;&gt;doHome -->
<g id="edge66" class="edge"><title>doInventory&#45;&gt;doHome</title>
<path fill="none" stroke="black" d="M1040.81,-232.091C1037.82,-243.331 1032.23,-257.486 1022,-266 991.198,-291.641 945.285,-299.372 911.793,-301.309"/>
<polygon fill="black" stroke="black" points="911.233,-297.829 901.39,-301.749 911.529,-304.823 911.233,-297.829"/>
<text text-anchor="middle" x="1073.5" y="-254.3" font-family="Times New Roman,serif" font-size="14.00">0.0517; n(1 0)</text>
</g>
<!-- doInventory&#45;&gt;doInventory -->
<g id="edge68" class="edge"><title>doInventory&#45;&gt;doInventory</title>
<path fill="none" stroke="black" d="M1086.33,-222.104C1096.48,-221.471 1104,-218.77 1104,-214 1104,-211.019 1101.06,-208.846 1096.38,-207.481"/>
<polygon fill="black" stroke="black" points="1096.75,-203.996 1086.33,-205.896 1095.66,-210.911 1096.75,-203.996"/>
<text text-anchor="middle" x="1150" y="-210.3" font-family="Times New Roman,serif" font-size="14.00">0.1615; n(21 84)</text>
</g>
<!-- doSell -->
<g id="node14" class="node"><title>doSell</title>
<text text-anchor="middle" x="842" y="-102.3" font-family="Times New Roman,serif" font-size="14.00">doSell</text>
</g>
<!-- doInventory&#45;&gt;doSell -->
<g id="edge70" class="edge"><title>doInventory&#45;&gt;doSell</title>
<path fill="none" stroke="black" d="M1001.51,-203.508C964.911,-195.083 916.771,-183.311 909,-178 892.705,-166.864 896.378,-156.51 883,-142 879.521,-138.226 875.651,-134.463 871.716,-130.879"/>
<polygon fill="black" stroke="black" points="873.985,-128.214 864.159,-124.253 869.37,-133.477 873.985,-128.214"/>
<text text-anchor="middle" x="955" y="-156.3" font-family="Times New Roman,serif" font-size="14.00">0.1834; n(22 85)</text>
</g>
<!-- doCancelOrder -->
<g id="node16" class="node"><title>doCancelOrder</title>
<text text-anchor="middle" x="1123" y="-102.3" font-family="Times New Roman,serif" font-size="14.00">doCancelOrder</text>
</g>
<!-- doInventory&#45;&gt;doCancelOrder -->
<g id="edge72" class="edge"><title>doInventory&#45;&gt;doCancelOrder</title>
<path fill="none" stroke="black" d="M1086.39,-207.201C1104.18,-202.44 1123.21,-193.774 1134,-178 1142.73,-165.242 1140.43,-148.199 1135.73,-134.008"/>
<polygon fill="black" stroke="black" points="1138.85,-132.372 1132.01,-124.282 1132.32,-134.872 1138.85,-132.372"/>
<text text-anchor="middle" x="1182.5" y="-156.3" font-family="Times New Roman,serif" font-size="14.00">0.0736; n(4 18)</text>
</g>
<!-- doInventory&#45;&gt;$ -->
<g id="edge74" class="edge"><title>doInventory&#45;&gt;$</title>
<path fill="none" stroke="black" d="M1038.35,-195.765C1027.95,-165.06 1005.29,-102.727 988,-88 940.445,-47.4883 751.95,-28.2097 671.121,-21.6766"/>
<polygon fill="black" stroke="black" points="671.151,-18.1682 660.907,-20.873 670.602,-25.1467 671.151,-18.1682"/>
<text text-anchor="middle" x="1030" y="-102.3" font-family="Times New Roman,serif" font-size="14.00">0.5299</text>
</g>
<!-- doSell&#45;&gt;doHome -->
<g id="edge76" class="edge"><title>doSell&#45;&gt;doHome</title>
<path fill="none" stroke="black" d="M849.419,-124.168C851.551,-129.758 853.66,-136.056 855,-142 865.194,-187.219 868.044,-241.231 868.794,-273.238"/>
<polygon fill="black" stroke="black" points="865.301,-273.656 868.981,-283.591 872.3,-273.53 865.301,-273.656"/>
<text text-anchor="middle" x="913" y="-210.3" font-family="Times New Roman,serif" font-size="14.00">0.1594; n(22 86)</text>
</g>
<!-- doSell&#45;&gt;doSell -->
<g id="edge78" class="edge"><title>doSell&#45;&gt;doSell</title>
<path fill="none" stroke="black" d="M869.241,-114.242C879.024,-114.419 887,-111.672 887,-106 887,-102.544 884.038,-100.173 879.51,-98.8891"/>
<polygon fill="black" stroke="black" points="879.564,-95.3739 869.241,-97.7581 878.797,-102.332 879.564,-95.3739"/>
<text text-anchor="middle" x="933" y="-102.3" font-family="Times New Roman,serif" font-size="14.00">0.3088; n(31 93)</text>
</g>
<!-- doSell&#45;&gt;$ -->
<g id="edge80" class="edge"><title>doSell&#45;&gt;$</title>
<path fill="none" stroke="black" d="M832.416,-87.7064C825.235,-76.3759 814.364,-62.1962 801,-54 761.124,-29.5444 706.899,-21.942 671.201,-19.7065"/>
<polygon fill="black" stroke="black" points="671.369,-16.2106 661.202,-19.1903 671.008,-23.2013 671.369,-16.2106"/>
<text text-anchor="middle" x="838" y="-58.3" font-family="Times New Roman,serif" font-size="14.00">0.5319</text>
</g>
<!-- doLogout&#45;&gt;$ -->
<g id="edge82" class="edge"><title>doLogout&#45;&gt;$</title>
<path fill="none" stroke="black" d="M755.295,-141.86C752.159,-119.017 743.473,-78.6206 720,-54 706.61,-39.9559 686.798,-31.3807 669.564,-26.2365"/>
<polygon fill="black" stroke="black" points="670.349,-22.8232 659.782,-23.5887 668.52,-29.5801 670.349,-22.8232"/>
<text text-anchor="middle" x="756.5" y="-102.3" font-family="Times New Roman,serif" font-size="14.00">1</text>
</g>
<!-- doCancelOrder&#45;&gt;doInventory -->
<g id="edge84" class="edge"><title>doCancelOrder&#45;&gt;doInventory</title>
<path fill="none" stroke="black" d="M1071.53,-120.201C1061.08,-125.298 1051.36,-132.326 1045,-142 1036.69,-154.641 1036.12,-171.478 1037.77,-185.584"/>
<polygon fill="black" stroke="black" points="1034.36,-186.395 1039.38,-195.723 1041.27,-185.298 1034.36,-186.395"/>
<text text-anchor="middle" x="1087.5" y="-156.3" font-family="Times New Roman,serif" font-size="14.00">0.3705; n(5 19)</text>
</g>
<!-- doCancelOrder&#45;&gt;$ -->
<g id="edge86" class="edge"><title>doCancelOrder&#45;&gt;$</title>
<path fill="none" stroke="black" d="M1098.31,-87.945C1080.04,-76.2588 1054.07,-61.5547 1029,-54 962.627,-33.995 756.237,-23.805 671.198,-20.3677"/>
<polygon fill="black" stroke="black" points="671.104,-16.8613 660.973,-19.9635 670.827,-23.8558 671.104,-16.8613"/>
<text text-anchor="middle" x="1086" y="-58.3" font-family="Times New Roman,serif" font-size="14.00">0.6295</text>
</g>
<!-- doRemoveFromShoppingCart&#45;&gt;doDeferedPurchase -->
<g id="edge88" class="edge"><title>doRemoveFromShoppingCart&#45;&gt;doDeferedPurchase</title>
<path fill="none" stroke="black" d="M547.077,-479.941C539.246,-475.313 532.263,-469.442 527,-462 518.081,-449.386 519.514,-432.21 523.33,-417.911"/>
<polygon fill="black" stroke="black" points="526.749,-418.704 526.415,-408.114 520.073,-416.601 526.749,-418.704"/>
<text text-anchor="middle" x="569.5" y="-440.3" font-family="Times New Roman,serif" font-size="14.00">0.0423; n(7 39)</text>
</g>
<!-- doRemoveFromShoppingCart&#45;&gt;doShoppingCart -->
<g id="edge90" class="edge"><title>doRemoveFromShoppingCart&#45;&gt;doShoppingCart</title>
<path fill="none" stroke="black" d="M652.397,-516.35C657.899,-521.339 662.95,-527.278 666,-534 672.611,-548.57 674.93,-556.724 666,-570 660.591,-578.041 652.98,-584.235 644.499,-589.007"/>
<polygon fill="black" stroke="black" points="642.83,-585.928 635.403,-593.483 645.921,-592.208 642.83,-585.928"/>
<text text-anchor="middle" x="714.5" y="-548.3" font-family="Times New Roman,serif" font-size="14.00">0.0867; n(1 10)</text>
</g>
<!-- doRemoveFromShoppingCart&#45;&gt;doPurchase -->
<g id="edge92" class="edge"><title>doRemoveFromShoppingCart&#45;&gt;doPurchase</title>
<path fill="none" stroke="black" d="M638.531,-479.924C650.495,-464.461 669.668,-441.757 690,-426 696.127,-421.252 702.992,-416.832 709.931,-412.841"/>
<polygon fill="black" stroke="black" points="711.625,-415.903 718.707,-408.023 708.257,-409.767 711.625,-415.903"/>
<text text-anchor="middle" x="736" y="-440.3" font-family="Times New Roman,serif" font-size="14.00">0.0544; n(15 99)</text>
</g>
<!-- doRemoveFromShoppingCart&#45;&gt;$ -->
<g id="edge94" class="edge"><title>doRemoveFromShoppingCart&#45;&gt;$</title>
<path fill="none" stroke="black" d="M623.118,-479.932C616.349,-439.269 600,-337.491 600,-303 600,-303 600,-303 600,-105 600,-83.258 609.514,-60.4531 618.477,-43.7939"/>
<polygon fill="black" stroke="black" points="621.718,-45.1738 623.614,-34.7499 615.632,-41.7164 621.718,-45.1738"/>
<text text-anchor="middle" x="619" y="-254.3" font-family="Times New Roman,serif" font-size="14.00">0.8167</text>
</g>
</g>
</svg>
