<?xml version="1.0" encoding="UTF-8" standalone="no"?>
<!DOCTYPE svg PUBLIC "-//W3C//DTD SVG 1.1//EN"
 "http://www.w3.org/Graphics/SVG/1.1/DTD/svg11.dtd">
<!-- Generated by graphviz version 2.28.0 (20110507.0327)
 -->
<!-- Title: G Pages: 1 -->
<svg width="1324pt" height="572pt"
 viewBox="0.00 0.00 1324.00 572.00" xmlns="http://www.w3.org/2000/svg" xmlns:xlink="http://www.w3.org/1999/xlink">
<g id="graph1" class="graph" transform="scale(1 1) rotate(0) translate(4 568)">
<title>G</title>
<polygon fill="white" stroke="white" points="-4,5 -4,-568 1321,-568 1321,5 -4,5"/>
<!-- doInventory* -->
<g id="node1" class="node"><title>doInventory*</title>
<text text-anchor="middle" x="56" y="-542.3" font-family="Times New Roman,serif" font-size="14.00">doInventory*</text>
</g>
<!-- doInventory*&#45;&gt;doInventory* -->
<g id="edge2" class="edge"><title>doInventory*&#45;&gt;doInventory*</title>
<path fill="none" stroke="black" d="M102.024,-554.049C112.406,-553.323 120,-550.641 120,-546 120,-543.027 116.884,-540.858 111.914,-539.492"/>
<polygon fill="black" stroke="black" points="112.444,-536.032 102.024,-537.951 111.366,-542.949 112.444,-536.032"/>
<text text-anchor="middle" x="152.5" y="-542.3" font-family="Times New Roman,serif" font-size="14.00">0.5; n(70 0)</text>
</g>
<!-- doSell -->
<g id="node13" class="node"><title>doSell</title>
<text text-anchor="middle" x="56" y="-454.3" font-family="Times New Roman,serif" font-size="14.00">doSell</text>
</g>
<!-- doInventory*&#45;&gt;doSell -->
<g id="edge4" class="edge"><title>doInventory*&#45;&gt;doSell</title>
<path fill="none" stroke="black" d="M56,-527.597C56,-515.746 56,-499.817 56,-486.292"/>
<polygon fill="black" stroke="black" points="59.5001,-486.084 56,-476.084 52.5001,-486.084 59.5001,-486.084"/>
<text text-anchor="middle" x="92" y="-498.3" font-family="Times New Roman,serif" font-size="14.00">0.5; n(216 0)</text>
</g>
<!-- doSupplierSetAllURLs -->
<g id="node2" class="node"><title>doSupplierSetAllURLs</title>
<text text-anchor="middle" x="1243" y="-102.3" font-family="Times New Roman,serif" font-size="14.00">doSupplierSetAllURLs</text>
</g>
<!-- $ -->
<g id="node20" class="node"><title>$</title>
<ellipse fill="none" stroke="black" cx="688" cy="-18" rx="27" ry="18"/>
<text text-anchor="middle" x="688" y="-14.3" font-family="Times New Roman,serif" font-size="14.00">$</text>
</g>
<!-- doSupplierSetAllURLs&#45;&gt;$ -->
<g id="edge6" class="edge"><title>doSupplierSetAllURLs&#45;&gt;$</title>
<path fill="none" stroke="black" d="M1169.68,-89.9642C1166.41,-89.2991 1163.17,-88.642 1160,-88 1084.48,-72.714 1066.11,-66.0009 990,-54 894.78,-38.9862 781.718,-27.581 724.734,-22.2769"/>
<polygon fill="black" stroke="black" points="725.042,-18.7906 714.763,-21.358 724.4,-25.7611 725.042,-18.7906"/>
<text text-anchor="middle" x="1078.5" y="-58.3" font-family="Times New Roman,serif" font-size="14.00">1</text>
</g>
<!-- doAtomicityTests -->
<g id="node3" class="node"><title>doAtomicityTests</title>
<text text-anchor="middle" x="237" y="-102.3" font-family="Times New Roman,serif" font-size="14.00">doAtomicityTests</text>
</g>
<!-- doAtomicityTests&#45;&gt;$ -->
<g id="edge8" class="edge"><title>doAtomicityTests&#45;&gt;$</title>
<path fill="none" stroke="black" d="M295.57,-90.2021C298.757,-89.4455 301.916,-88.7068 305,-88 377.133,-71.467 395.215,-67.3729 468,-54 532.483,-42.1525 608.036,-30.6481 651.722,-24.2275"/>
<polygon fill="black" stroke="black" points="652.466,-27.6561 661.854,-22.7457 651.453,-20.7298 652.466,-27.6561"/>
<text text-anchor="middle" x="471.5" y="-58.3" font-family="Times New Roman,serif" font-size="14.00">1</text>
</g>
<!-- doCacheTest -->
<g id="node4" class="node"><title>doCacheTest</title>
<text text-anchor="middle" x="360" y="-102.3" font-family="Times New Roman,serif" font-size="14.00">doCacheTest</text>
</g>
<!-- doCacheTest&#45;&gt;$ -->
<g id="edge10" class="edge"><title>doCacheTest&#45;&gt;$</title>
<path fill="none" stroke="black" d="M406.181,-90.6079C409.162,-89.7152 412.122,-88.8392 415,-88 469.861,-72.0047 483.619,-68.0918 539,-54 577.7,-44.1527 622.31,-33.8054 652.556,-26.9387"/>
<polygon fill="black" stroke="black" points="653.64,-30.2819 662.621,-24.6615 652.096,-23.4544 653.64,-30.2819"/>
<text text-anchor="middle" x="542.5" y="-58.3" font-family="Times New Roman,serif" font-size="14.00">1</text>
</g>
<!-- doLogin -->
<g id="node5" class="node"><title>doLogin</title>
<text text-anchor="middle" x="456" y="-102.3" font-family="Times New Roman,serif" font-size="14.00">doLogin</text>
</g>
<!-- doLogin&#45;&gt;$ -->
<g id="edge12" class="edge"><title>doLogin&#45;&gt;$</title>
<path fill="none" stroke="black" d="M488.172,-91.4951C491.149,-90.2953 494.126,-89.1142 497,-88 552.072,-66.6484 616.861,-43.6927 655.064,-30.3763"/>
<polygon fill="black" stroke="black" points="656.348,-33.6357 664.643,-27.0453 654.049,-27.024 656.348,-33.6357"/>
<text text-anchor="middle" x="589.5" y="-58.3" font-family="Times New Roman,serif" font-size="14.00">1</text>
</g>
<!-- doVehicleQuotes -->
<g id="node6" class="node"><title>doVehicleQuotes</title>
<text text-anchor="middle" x="56" y="-278.3" font-family="Times New Roman,serif" font-size="14.00">doVehicleQuotes</text>
</g>
<!-- doAddToShoppingCart -->
<g id="node7" class="node"><title>doAddToShoppingCart</title>
<text text-anchor="middle" x="126" y="-190.3" font-family="Times New Roman,serif" font-size="14.00">doAddToShoppingCart</text>
</g>
<!-- doVehicleQuotes&#45;&gt;doAddToShoppingCart -->
<g id="edge14" class="edge"><title>doVehicleQuotes&#45;&gt;doAddToShoppingCart</title>
<path fill="none" stroke="black" d="M70.1655,-263.597C80.3845,-251.042 94.3291,-233.91 105.726,-219.908"/>
<polygon fill="black" stroke="black" points="108.496,-222.049 112.094,-212.084 103.067,-217.63 108.496,-222.049"/>
<text text-anchor="middle" x="101.5" y="-234.3" font-family="Times New Roman,serif" font-size="14.00">1</text>
</g>
<!-- doShoppingCart -->
<g id="node10" class="node"><title>doShoppingCart</title>
<text text-anchor="middle" x="105" y="-102.3" font-family="Times New Roman,serif" font-size="14.00">doShoppingCart</text>
</g>
<!-- doAddToShoppingCart&#45;&gt;doShoppingCart -->
<g id="edge16" class="edge"><title>doAddToShoppingCart&#45;&gt;doShoppingCart</title>
<path fill="none" stroke="black" d="M121.75,-175.597C118.828,-163.629 114.89,-147.501 111.566,-133.891"/>
<polygon fill="black" stroke="black" points="114.944,-132.968 109.172,-124.084 108.144,-134.629 114.944,-132.968"/>
<text text-anchor="middle" x="127" y="-146.3" font-family="Times New Roman,serif" font-size="14.00">0.5</text>
</g>
<!-- doPurchase -->
<g id="node12" class="node"><title>doPurchase</title>
<text text-anchor="middle" x="1110" y="-102.3" font-family="Times New Roman,serif" font-size="14.00">doPurchase</text>
</g>
<!-- doAddToShoppingCart&#45;&gt;doPurchase -->
<g id="edge18" class="edge"><title>doAddToShoppingCart&#45;&gt;doPurchase</title>
<path fill="none" stroke="black" d="M201.532,-193.713C359.761,-193.849 737.224,-187.055 1058.51,-123.759"/>
<polygon fill="black" stroke="black" points="1059.36,-127.16 1068.48,-121.773 1057.99,-120.294 1059.36,-127.16"/>
<text text-anchor="middle" x="943" y="-146.3" font-family="Times New Roman,serif" font-size="14.00">0.5</text>
</g>
<!-- doDeferedPurchase -->
<g id="node8" class="node"><title>doDeferedPurchase</title>
<text text-anchor="middle" x="570" y="-102.3" font-family="Times New Roman,serif" font-size="14.00">doDeferedPurchase</text>
</g>
<!-- doDeferedPurchase&#45;&gt;$ -->
<g id="edge20" class="edge"><title>doDeferedPurchase&#45;&gt;$</title>
<path fill="none" stroke="black" d="M593.595,-87.8033C613.369,-73.3921 641.562,-52.845 661.985,-37.9604"/>
<polygon fill="black" stroke="black" points="664.194,-40.6808 670.214,-31.9624 660.072,-35.0237 664.194,-40.6808"/>
<text text-anchor="middle" x="643.5" y="-58.3" font-family="Times New Roman,serif" font-size="14.00">1</text>
</g>
<!-- doHome -->
<g id="node9" class="node"><title>doHome</title>
<text text-anchor="middle" x="56" y="-366.3" font-family="Times New Roman,serif" font-size="14.00">doHome</text>
</g>
<!-- doHome&#45;&gt;doVehicleQuotes -->
<g id="edge22" class="edge"><title>doHome&#45;&gt;doVehicleQuotes</title>
<path fill="none" stroke="black" d="M56,-351.597C56,-339.746 56,-323.817 56,-310.292"/>
<polygon fill="black" stroke="black" points="59.5001,-310.084 56,-300.084 52.5001,-310.084 59.5001,-310.084"/>
<text text-anchor="middle" x="90" y="-322.3" font-family="Times New Roman,serif" font-size="14.00">1; n(6382 0)</text>
</g>
<!-- doClearCart -->
<g id="node11" class="node"><title>doClearCart</title>
<text text-anchor="middle" x="43" y="-14.3" font-family="Times New Roman,serif" font-size="14.00">doClearCart</text>
</g>
<!-- doShoppingCart&#45;&gt;doClearCart -->
<g id="edge24" class="edge"><title>doShoppingCart&#45;&gt;doClearCart</title>
<path fill="none" stroke="black" d="M92.4534,-87.5966C83.4869,-75.1592 71.2819,-58.2298 61.2406,-44.3015"/>
<polygon fill="black" stroke="black" points="64.0036,-42.149 55.3164,-36.084 58.3253,-46.2426 64.0036,-42.149"/>
<text text-anchor="middle" x="83.5" y="-58.3" font-family="Times New Roman,serif" font-size="14.00">1</text>
</g>
<!-- doClearCart&#45;&gt;doVehicleQuotes -->
<g id="edge26" class="edge"><title>doClearCart&#45;&gt;doVehicleQuotes</title>
<path fill="none" stroke="black" d="M41.4829,-36.1044C38.7848,-69.8564 34.0556,-147.365 41,-212 42.504,-225.998 45.6773,-241.323 48.7195,-253.967"/>
<polygon fill="black" stroke="black" points="45.3758,-255.023 51.2046,-263.87 52.1652,-253.319 45.3758,-255.023"/>
<text text-anchor="middle" x="41.5" y="-146.3" font-family="Times New Roman,serif" font-size="14.00">1</text>
</g>
<!-- doPurchase&#45;&gt;$ -->
<g id="edge28" class="edge"><title>doPurchase&#45;&gt;$</title>
<path fill="none" stroke="black" d="M1068.67,-90.6932C1065.41,-89.7285 1062.16,-88.8171 1059,-88 937.977,-56.7344 791.275,-33.7463 724.393,-24.064"/>
<polygon fill="black" stroke="black" points="724.756,-20.5803 714.36,-22.6251 723.762,-27.5094 724.756,-20.5803"/>
<text text-anchor="middle" x="982.5" y="-58.3" font-family="Times New Roman,serif" font-size="14.00">1</text>
</g>
<!-- doSell&#45;&gt;doHome -->
<g id="edge30" class="edge"><title>doSell&#45;&gt;doHome</title>
<path fill="none" stroke="black" d="M56,-439.597C56,-427.746 56,-411.817 56,-398.292"/>
<polygon fill="black" stroke="black" points="59.5001,-398.084 56,-388.084 52.5001,-398.084 59.5001,-398.084"/>
<text text-anchor="middle" x="102" y="-410.3" font-family="Times New Roman,serif" font-size="14.00">0.3333; n(247 0)</text>
</g>
<!-- doSell&#45;&gt;doSell -->
<g id="edge32" class="edge"><title>doSell&#45;&gt;doSell</title>
<path fill="none" stroke="black" d="M83.2408,-466.242C93.0239,-466.419 101,-463.672 101,-458 101,-454.544 98.0382,-452.173 93.5105,-450.889"/>
<polygon fill="black" stroke="black" points="93.5639,-447.374 83.2408,-449.758 92.7975,-454.332 93.5639,-447.374"/>
<text text-anchor="middle" x="150.5" y="-454.3" font-family="Times New Roman,serif" font-size="14.00">0.6667; n(133 12)</text>
</g>
<!-- doLogout -->
<g id="node14" class="node"><title>doLogout</title>
<text text-anchor="middle" x="688" y="-102.3" font-family="Times New Roman,serif" font-size="14.00">doLogout</text>
</g>
<!-- doLogout&#45;&gt;$ -->
<g id="edge34" class="edge"><title>doLogout&#45;&gt;$</title>
<path fill="none" stroke="black" d="M688,-87.5966C688,-75.7459 688,-59.8169 688,-46.2917"/>
<polygon fill="black" stroke="black" points="691.5,-46.084 688,-36.084 684.5,-46.084 691.5,-46.084"/>
<text text-anchor="middle" x="691.5" y="-58.3" font-family="Times New Roman,serif" font-size="14.00">1</text>
</g>
<!-- doCancelOrder -->
<g id="node15" class="node"><title>doCancelOrder</title>
<text text-anchor="middle" x="794" y="-102.3" font-family="Times New Roman,serif" font-size="14.00">doCancelOrder</text>
</g>
<!-- doCancelOrder&#45;&gt;$ -->
<g id="edge36" class="edge"><title>doCancelOrder&#45;&gt;$</title>
<path fill="none" stroke="black" d="M772.804,-87.8033C755.41,-73.6908 730.763,-53.6941 712.519,-38.8931"/>
<polygon fill="black" stroke="black" points="714.608,-36.0805 704.637,-32.4981 710.198,-41.5165 714.608,-36.0805"/>
<text text-anchor="middle" x="754.5" y="-58.3" font-family="Times New Roman,serif" font-size="14.00">1</text>
</g>
<!-- doRemoveFromShoppingCart -->
<g id="node16" class="node"><title>doRemoveFromShoppingCart</title>
<text text-anchor="middle" x="957" y="-102.3" font-family="Times New Roman,serif" font-size="14.00">doRemoveFromShoppingCart</text>
</g>
<!-- doRemoveFromShoppingCart&#45;&gt;$ -->
<g id="edge38" class="edge"><title>doRemoveFromShoppingCart&#45;&gt;$</title>
<path fill="none" stroke="black" d="M903.533,-87.9063C849.403,-70.6009 767.357,-44.3705 721.69,-29.7708"/>
<polygon fill="black" stroke="black" points="722.572,-26.3783 711.981,-26.6668 720.44,-33.0458 722.572,-26.3783"/>
<text text-anchor="middle" x="850.5" y="-58.3" font-family="Times New Roman,serif" font-size="14.00">1</text>
</g>
</g>
</svg>
