<?xml version="1.0" encoding="UTF-8" standalone="no"?>
<!DOCTYPE svg PUBLIC "-//W3C//DTD SVG 1.1//EN"
 "http://www.w3.org/Graphics/SVG/1.1/DTD/svg11.dtd">
<!-- Generated by graphviz version 2.28.0 (20110507.0327)
 -->
<!-- Title: G Pages: 1 -->
<svg width="1342pt" height="572pt"
 viewBox="0.00 0.00 1342.00 572.00" xmlns="http://www.w3.org/2000/svg" xmlns:xlink="http://www.w3.org/1999/xlink">
<g id="graph1" class="graph" transform="scale(1 1) rotate(0) translate(4 568)">
<title>G</title>
<polygon fill="white" stroke="white" points="-4,5 -4,-568 1339,-568 1339,5 -4,5"/>
<!-- doInventory* -->
<g id="node1" class="node"><title>doInventory*</title>
<text text-anchor="middle" x="248" y="-542.3" font-family="Times New Roman,serif" font-size="14.00">doInventory*</text>
</g>
<!-- doSell -->
<g id="node13" class="node"><title>doSell</title>
<text text-anchor="middle" x="56" y="-454.3" font-family="Times New Roman,serif" font-size="14.00">doSell</text>
</g>
<!-- doInventory*&#45;&gt;doSell -->
<g id="edge4" class="edge"><title>doInventory*&#45;&gt;doSell</title>
<path fill="none" stroke="black" d="M209.607,-527.803C175.543,-512.545 126.123,-490.409 92.6092,-475.398"/>
<polygon fill="black" stroke="black" points="93.7365,-472.068 83.1795,-471.174 90.875,-478.456 93.7365,-472.068"/>
<text text-anchor="middle" x="216" y="-498.3" font-family="Times New Roman,serif" font-size="14.00">0.5; n(216967 0)</text>
</g>
<!-- doInventory -->
<g id="node18" class="node"><title>doInventory</title>
<ellipse fill="none" stroke="black" cx="313" cy="-458" rx="55.3682" ry="18"/>
<text text-anchor="middle" x="313" y="-454.3" font-family="Times New Roman,serif" font-size="14.00">doInventory</text>
</g>
<!-- doInventory*&#45;&gt;doInventory -->
<g id="edge2" class="edge"><title>doInventory*&#45;&gt;doInventory</title>
<path fill="none" stroke="black" d="M261.154,-527.597C270.616,-515.078 283.517,-498.008 294.083,-484.029"/>
<polygon fill="black" stroke="black" points="297.071,-485.88 300.308,-475.792 291.486,-481.66 297.071,-485.88"/>
<text text-anchor="middle" x="329.5" y="-498.3" font-family="Times New Roman,serif" font-size="14.00">0.5; n(70098 0)</text>
</g>
<!-- doSupplierSetAllURLs -->
<g id="node2" class="node"><title>doSupplierSetAllURLs</title>
<text text-anchor="middle" x="1261" y="-102.3" font-family="Times New Roman,serif" font-size="14.00">doSupplierSetAllURLs</text>
</g>
<!-- $ -->
<g id="node21" class="node"><title>$</title>
<ellipse fill="none" stroke="black" cx="706" cy="-18" rx="27" ry="18"/>
<text text-anchor="middle" x="706" y="-14.3" font-family="Times New Roman,serif" font-size="14.00">$</text>
</g>
<!-- doSupplierSetAllURLs&#45;&gt;$ -->
<g id="edge6" class="edge"><title>doSupplierSetAllURLs&#45;&gt;$</title>
<path fill="none" stroke="black" d="M1187.68,-89.9597C1184.41,-89.2959 1181.17,-88.6402 1178,-88 1102.04,-72.6703 1083.55,-66.0403 1007,-54 912.283,-39.1016 799.869,-27.6769 742.964,-22.331"/>
<polygon fill="black" stroke="black" points="742.954,-18.815 732.673,-21.3738 742.305,-25.7849 742.954,-18.815"/>
<text text-anchor="middle" x="1095.5" y="-58.3" font-family="Times New Roman,serif" font-size="14.00">1</text>
</g>
<!-- doAtomicityTests -->
<g id="node3" class="node"><title>doAtomicityTests</title>
<text text-anchor="middle" x="255" y="-102.3" font-family="Times New Roman,serif" font-size="14.00">doAtomicityTests</text>
</g>
<!-- doAtomicityTests&#45;&gt;$ -->
<g id="edge8" class="edge"><title>doAtomicityTests&#45;&gt;$</title>
<path fill="none" stroke="black" d="M313.57,-90.2021C316.757,-89.4455 319.916,-88.7068 323,-88 395.133,-71.467 413.215,-67.3729 486,-54 550.483,-42.1525 626.036,-30.6481 669.722,-24.2275"/>
<polygon fill="black" stroke="black" points="670.466,-27.6561 679.854,-22.7457 669.453,-20.7298 670.466,-27.6561"/>
<text text-anchor="middle" x="489.5" y="-58.3" font-family="Times New Roman,serif" font-size="14.00">1</text>
</g>
<!-- doCacheTest -->
<g id="node4" class="node"><title>doCacheTest</title>
<text text-anchor="middle" x="378" y="-102.3" font-family="Times New Roman,serif" font-size="14.00">doCacheTest</text>
</g>
<!-- doCacheTest&#45;&gt;$ -->
<g id="edge10" class="edge"><title>doCacheTest&#45;&gt;$</title>
<path fill="none" stroke="black" d="M424.183,-90.6148C427.164,-89.7205 430.122,-88.8422 433,-88 487.433,-72.0682 501.039,-68.0023 556,-54 595.059,-44.0491 640.123,-33.6827 670.581,-26.8398"/>
<polygon fill="black" stroke="black" points="671.717,-30.1722 680.711,-24.5728 670.188,-23.3412 671.717,-30.1722"/>
<text text-anchor="middle" x="559.5" y="-58.3" font-family="Times New Roman,serif" font-size="14.00">1</text>
</g>
<!-- doLogin -->
<g id="node5" class="node"><title>doLogin</title>
<text text-anchor="middle" x="474" y="-102.3" font-family="Times New Roman,serif" font-size="14.00">doLogin</text>
</g>
<!-- doLogin&#45;&gt;$ -->
<g id="edge12" class="edge"><title>doLogin&#45;&gt;$</title>
<path fill="none" stroke="black" d="M506.172,-91.4951C509.149,-90.2953 512.126,-89.1142 515,-88 570.072,-66.6484 634.861,-43.6927 673.064,-30.3763"/>
<polygon fill="black" stroke="black" points="674.348,-33.6357 682.643,-27.0453 672.049,-27.024 674.348,-33.6357"/>
<text text-anchor="middle" x="606.5" y="-58.3" font-family="Times New Roman,serif" font-size="14.00">1</text>
</g>
<!-- doVehicleQuotes -->
<g id="node6" class="node"><title>doVehicleQuotes</title>
<text text-anchor="middle" x="56" y="-278.3" font-family="Times New Roman,serif" font-size="14.00">doVehicleQuotes</text>
</g>
<!-- doAddToShoppingCart -->
<g id="node7" class="node"><title>doAddToShoppingCart</title>
<text text-anchor="middle" x="144" y="-190.3" font-family="Times New Roman,serif" font-size="14.00">doAddToShoppingCart</text>
</g>
<!-- doVehicleQuotes&#45;&gt;doAddToShoppingCart -->
<g id="edge14" class="edge"><title>doVehicleQuotes&#45;&gt;doAddToShoppingCart</title>
<path fill="none" stroke="black" d="M73.8081,-263.597C86.895,-250.807 104.842,-233.268 119.313,-219.126"/>
<polygon fill="black" stroke="black" points="121.813,-221.577 126.519,-212.084 116.921,-216.57 121.813,-221.577"/>
<text text-anchor="middle" x="145.5" y="-234.3" font-family="Times New Roman,serif" font-size="14.00">1; n(953 261)</text>
</g>
<!-- doShoppingCart -->
<g id="node10" class="node"><title>doShoppingCart</title>
<text text-anchor="middle" x="123" y="-102.3" font-family="Times New Roman,serif" font-size="14.00">doShoppingCart</text>
</g>
<!-- doAddToShoppingCart&#45;&gt;doShoppingCart -->
<g id="edge16" class="edge"><title>doAddToShoppingCart&#45;&gt;doShoppingCart</title>
<path fill="none" stroke="black" d="M139.75,-175.597C136.828,-163.629 132.89,-147.501 129.566,-133.891"/>
<polygon fill="black" stroke="black" points="132.944,-132.968 127.172,-124.084 126.144,-134.629 132.944,-132.968"/>
<text text-anchor="middle" x="172" y="-146.3" font-family="Times New Roman,serif" font-size="14.00">0.5; n(750 0)</text>
</g>
<!-- doPurchase -->
<g id="node12" class="node"><title>doPurchase</title>
<text text-anchor="middle" x="1128" y="-102.3" font-family="Times New Roman,serif" font-size="14.00">doPurchase</text>
</g>
<!-- doAddToShoppingCart&#45;&gt;doPurchase -->
<g id="edge18" class="edge"><title>doAddToShoppingCart&#45;&gt;doPurchase</title>
<path fill="none" stroke="black" d="M219.532,-193.713C377.761,-193.849 755.224,-187.055 1076.51,-123.759"/>
<polygon fill="black" stroke="black" points="1077.36,-127.16 1086.48,-121.773 1075.99,-120.294 1077.36,-127.16"/>
<text text-anchor="middle" x="987" y="-146.3" font-family="Times New Roman,serif" font-size="14.00">0.5; n(700 0)</text>
</g>
<!-- doDeferedPurchase -->
<g id="node8" class="node"><title>doDeferedPurchase</title>
<text text-anchor="middle" x="588" y="-102.3" font-family="Times New Roman,serif" font-size="14.00">doDeferedPurchase</text>
</g>
<!-- doDeferedPurchase&#45;&gt;$ -->
<g id="edge20" class="edge"><title>doDeferedPurchase&#45;&gt;$</title>
<path fill="none" stroke="black" d="M611.595,-87.8033C631.369,-73.3921 659.562,-52.845 679.985,-37.9604"/>
<polygon fill="black" stroke="black" points="682.194,-40.6808 688.214,-31.9624 678.072,-35.0237 682.194,-40.6808"/>
<text text-anchor="middle" x="660.5" y="-58.3" font-family="Times New Roman,serif" font-size="14.00">1</text>
</g>
<!-- doHome -->
<g id="node9" class="node"><title>doHome</title>
<text text-anchor="middle" x="56" y="-366.3" font-family="Times New Roman,serif" font-size="14.00">doHome</text>
</g>
<!-- doHome&#45;&gt;doVehicleQuotes -->
<g id="edge22" class="edge"><title>doHome&#45;&gt;doVehicleQuotes</title>
<path fill="none" stroke="black" d="M56,-351.597C56,-339.746 56,-323.817 56,-310.292"/>
<polygon fill="black" stroke="black" points="59.5001,-310.084 56,-300.084 52.5001,-310.084 59.5001,-310.084"/>
<text text-anchor="middle" x="100" y="-322.3" font-family="Times New Roman,serif" font-size="14.00">1; n(6382518 0)</text>
</g>
<!-- doClearCart -->
<g id="node11" class="node"><title>doClearCart</title>
<text text-anchor="middle" x="69" y="-14.3" font-family="Times New Roman,serif" font-size="14.00">doClearCart</text>
</g>
<!-- doShoppingCart&#45;&gt;doClearCart -->
<g id="edge24" class="edge"><title>doShoppingCart&#45;&gt;doClearCart</title>
<path fill="none" stroke="black" d="M112.072,-87.5966C104.336,-75.2765 93.833,-58.5488 85.135,-44.6965"/>
<polygon fill="black" stroke="black" points="88.009,-42.6917 79.7272,-36.084 82.0808,-46.4141 88.009,-42.6917"/>
<text text-anchor="middle" x="131.5" y="-58.3" font-family="Times New Roman,serif" font-size="14.00">1; n(624 0)</text>
</g>
<!-- doClearCart&#45;&gt;doVehicleQuotes -->
<g id="edge26" class="edge"><title>doClearCart&#45;&gt;doVehicleQuotes</title>
<path fill="none" stroke="black" d="M65.8759,-36.2283C63.5041,-50.1448 60.4172,-70.2632 59,-88 54.2871,-146.982 54.6483,-216.416 55.3261,-253.825"/>
<polygon fill="black" stroke="black" points="51.8288,-253.999 55.5315,-263.926 58.8274,-253.856 51.8288,-253.999"/>
<text text-anchor="middle" x="86.5" y="-146.3" font-family="Times New Roman,serif" font-size="14.00">1; n(581 0)</text>
</g>
<!-- doPurchase&#45;&gt;$ -->
<g id="edge28" class="edge"><title>doPurchase&#45;&gt;$</title>
<path fill="none" stroke="black" d="M1086.67,-90.6932C1083.41,-89.7285 1080.16,-88.8171 1077,-88 955.977,-56.7344 809.275,-33.7463 742.393,-24.064"/>
<polygon fill="black" stroke="black" points="742.756,-20.5803 732.36,-22.6251 741.762,-27.5094 742.756,-20.5803"/>
<text text-anchor="middle" x="999.5" y="-58.3" font-family="Times New Roman,serif" font-size="14.00">1</text>
</g>
<!-- doSell&#45;&gt;doHome -->
<g id="edge30" class="edge"><title>doSell&#45;&gt;doHome</title>
<path fill="none" stroke="black" d="M56,-439.597C56,-427.746 56,-411.817 56,-398.292"/>
<polygon fill="black" stroke="black" points="59.5001,-398.084 56,-388.084 52.5001,-398.084 59.5001,-398.084"/>
<text text-anchor="middle" x="112" y="-410.3" font-family="Times New Roman,serif" font-size="14.00">0.3333; n(247999 0)</text>
</g>
<!-- doSell&#45;&gt;doSell -->
<g id="edge32" class="edge"><title>doSell&#45;&gt;doSell</title>
<path fill="none" stroke="black" d="M83.2408,-466.242C93.0239,-466.419 101,-463.672 101,-458 101,-454.544 98.0382,-452.173 93.5105,-450.889"/>
<polygon fill="black" stroke="black" points="93.5639,-447.374 83.2408,-449.758 92.7975,-454.332 93.5639,-447.374"/>
<text text-anchor="middle" x="170.5" y="-454.3" font-family="Times New Roman,serif" font-size="14.00">0.6667; n(133401 12113)</text>
</g>
<!-- doLogout -->
<g id="node14" class="node"><title>doLogout</title>
<text text-anchor="middle" x="706" y="-102.3" font-family="Times New Roman,serif" font-size="14.00">doLogout</text>
</g>
<!-- doLogout&#45;&gt;$ -->
<g id="edge34" class="edge"><title>doLogout&#45;&gt;$</title>
<path fill="none" stroke="black" d="M706,-87.5966C706,-75.7459 706,-59.8169 706,-46.2917"/>
<polygon fill="black" stroke="black" points="709.5,-46.084 706,-36.084 702.5,-46.084 709.5,-46.084"/>
<text text-anchor="middle" x="709.5" y="-58.3" font-family="Times New Roman,serif" font-size="14.00">1</text>
</g>
<!-- doCancelOrder -->
<g id="node15" class="node"><title>doCancelOrder</title>
<text text-anchor="middle" x="812" y="-102.3" font-family="Times New Roman,serif" font-size="14.00">doCancelOrder</text>
</g>
<!-- doCancelOrder&#45;&gt;$ -->
<g id="edge36" class="edge"><title>doCancelOrder&#45;&gt;$</title>
<path fill="none" stroke="black" d="M790.804,-87.8033C773.41,-73.6908 748.763,-53.6941 730.519,-38.8931"/>
<polygon fill="black" stroke="black" points="732.608,-36.0805 722.637,-32.4981 728.198,-41.5165 732.608,-36.0805"/>
<text text-anchor="middle" x="771.5" y="-58.3" font-family="Times New Roman,serif" font-size="14.00">1</text>
</g>
<!-- doRemoveFromShoppingCart -->
<g id="node16" class="node"><title>doRemoveFromShoppingCart</title>
<text text-anchor="middle" x="975" y="-102.3" font-family="Times New Roman,serif" font-size="14.00">doRemoveFromShoppingCart</text>
</g>
<!-- doRemoveFromShoppingCart&#45;&gt;$ -->
<g id="edge38" class="edge"><title>doRemoveFromShoppingCart&#45;&gt;$</title>
<path fill="none" stroke="black" d="M921.533,-87.9063C867.403,-70.6009 785.357,-44.3705 739.69,-29.7708"/>
<polygon fill="black" stroke="black" points="740.572,-26.3783 729.981,-26.6668 738.44,-33.0458 740.572,-26.3783"/>
<text text-anchor="middle" x="867.5" y="-58.3" font-family="Times New Roman,serif" font-size="14.00">1</text>
</g>
</g>
</svg>
