<?xml version="1.0" encoding="UTF-8" standalone="no"?>
<!DOCTYPE svg PUBLIC "-//W3C//DTD SVG 1.1//EN"
 "http://www.w3.org/Graphics/SVG/1.1/DTD/svg11.dtd">
<!-- Generated by graphviz version 2.28.0 (20110507.0327)
 -->
<!-- Title: G Pages: 1 -->
<svg width="1941pt" height="132pt"
 viewBox="0.00 0.00 1941.00 132.00" xmlns="http://www.w3.org/2000/svg" xmlns:xlink="http://www.w3.org/1999/xlink">
<g id="graph1" class="graph" transform="scale(1 1) rotate(0) translate(4 128)">
<title>G</title>
<polygon fill="white" stroke="white" points="-4,5 -4,-128 1938,-128 1938,5 -4,5"/>
<!-- doSupplierSetAllURLs* -->
<g id="node1" class="node"><title>doSupplierSetAllURLs*</title>
<text text-anchor="middle" x="76" y="-102.3" font-family="Times New Roman,serif" font-size="14.00">doSupplierSetAllURLs*</text>
</g>
<!-- $ -->
<g id="node18" class="node"><title>$</title>
<ellipse fill="none" stroke="black" cx="1029" cy="-18" rx="27" ry="18"/>
<text text-anchor="middle" x="1029" y="-14.3" font-family="Times New Roman,serif" font-size="14.00">$</text>
</g>
<!-- doSupplierSetAllURLs*&#45;&gt;$ -->
<g id="edge2" class="edge"><title>doSupplierSetAllURLs*&#45;&gt;$</title>
<path fill="none" stroke="black" d="M152.008,-88.7127C209.846,-77.0086 291.568,-61.9459 364,-54 602.359,-27.8515 891,-21.0992 991.984,-19.478"/>
<polygon fill="black" stroke="black" points="992.045,-22.9776 1001.99,-19.3245 991.937,-15.9784 992.045,-22.9776"/>
<text text-anchor="middle" x="367.5" y="-58.3" font-family="Times New Roman,serif" font-size="14.00">1</text>
</g>
<!-- doAtomicityTests -->
<g id="node2" class="node"><title>doAtomicityTests</title>
<text text-anchor="middle" x="229" y="-102.3" font-family="Times New Roman,serif" font-size="14.00">doAtomicityTests</text>
</g>
<!-- doAtomicityTests&#45;&gt;$ -->
<g id="edge4" class="edge"><title>doAtomicityTests&#45;&gt;$</title>
<path fill="none" stroke="black" d="M287.711,-89.6296C335.6,-77.7691 405.195,-62.0675 467,-54 663.745,-28.3188 901.78,-21.359 991.964,-19.5775"/>
<polygon fill="black" stroke="black" points="992.037,-23.0768 1001.97,-19.3894 991.905,-16.078 992.037,-23.0768"/>
<text text-anchor="middle" x="470.5" y="-58.3" font-family="Times New Roman,serif" font-size="14.00">1</text>
</g>
<!-- doCacheTest -->
<g id="node3" class="node"><title>doCacheTest</title>
<text text-anchor="middle" x="352" y="-102.3" font-family="Times New Roman,serif" font-size="14.00">doCacheTest</text>
</g>
<!-- doCacheTest&#45;&gt;$ -->
<g id="edge6" class="edge"><title>doCacheTest&#45;&gt;$</title>
<path fill="none" stroke="black" d="M398.129,-90.4198C401.123,-89.5733 404.099,-88.7588 407,-88 476.491,-69.821 493.91,-64.281 565,-54 722.495,-31.2233 912.342,-22.7756 991.503,-20.0912"/>
<polygon fill="black" stroke="black" points="992.043,-23.5755 1001.92,-19.7498 991.814,-16.5792 992.043,-23.5755"/>
<text text-anchor="middle" x="568.5" y="-58.3" font-family="Times New Roman,serif" font-size="14.00">1</text>
</g>
<!-- doLogin -->
<g id="node4" class="node"><title>doLogin</title>
<text text-anchor="middle" x="448" y="-102.3" font-family="Times New Roman,serif" font-size="14.00">doLogin</text>
</g>
<!-- doLogin&#45;&gt;$ -->
<g id="edge8" class="edge"><title>doLogin&#45;&gt;$</title>
<path fill="none" stroke="black" d="M480.424,-90.7291C483.294,-89.7185 486.18,-88.7891 489,-88 673.104,-36.4815 903.409,-23.2985 991.961,-20.0342"/>
<polygon fill="black" stroke="black" points="992.173,-23.5291 1002.05,-19.6834 991.93,-16.5333 992.173,-23.5291"/>
<text text-anchor="middle" x="638.5" y="-58.3" font-family="Times New Roman,serif" font-size="14.00">1</text>
</g>
<!-- doVehicleQuotes -->
<g id="node5" class="node"><title>doVehicleQuotes</title>
<text text-anchor="middle" x="555" y="-102.3" font-family="Times New Roman,serif" font-size="14.00">doVehicleQuotes</text>
</g>
<!-- doVehicleQuotes&#45;&gt;$ -->
<g id="edge10" class="edge"><title>doVehicleQuotes&#45;&gt;$</title>
<path fill="none" stroke="black" d="M611.297,-89.9498C614.235,-89.2667 617.149,-88.6121 620,-88 756.281,-58.7434 920.3,-34.2819 992.2,-24.0902"/>
<polygon fill="black" stroke="black" points="993.115,-27.496 1002.53,-22.6347 992.138,-20.5645 993.115,-27.496"/>
<text text-anchor="middle" x="802.5" y="-58.3" font-family="Times New Roman,serif" font-size="14.00">1</text>
</g>
<!-- doAddToShoppingCart -->
<g id="node6" class="node"><title>doAddToShoppingCart</title>
<text text-anchor="middle" x="705" y="-102.3" font-family="Times New Roman,serif" font-size="14.00">doAddToShoppingCart</text>
</g>
<!-- doAddToShoppingCart&#45;&gt;$ -->
<g id="edge12" class="edge"><title>doAddToShoppingCart&#45;&gt;$</title>
<path fill="none" stroke="black" d="M769.399,-87.9063C837.188,-69.913 941.329,-42.2708 994.769,-28.086"/>
<polygon fill="black" stroke="black" points="995.679,-31.4657 1004.45,-25.5173 993.883,-24.7 995.679,-31.4657"/>
<text text-anchor="middle" x="900.5" y="-58.3" font-family="Times New Roman,serif" font-size="14.00">1</text>
</g>
<!-- doDeferedPurchase -->
<g id="node7" class="node"><title>doDeferedPurchase</title>
<text text-anchor="middle" x="862" y="-102.3" font-family="Times New Roman,serif" font-size="14.00">doDeferedPurchase</text>
</g>
<!-- doDeferedPurchase&#45;&gt;$ -->
<g id="edge14" class="edge"><title>doDeferedPurchase&#45;&gt;$</title>
<path fill="none" stroke="black" d="M895.394,-87.8033C925.667,-72.2134 969.884,-49.4427 999.041,-34.4282"/>
<polygon fill="black" stroke="black" points="1001.02,-37.3452 1008.31,-29.6552 997.816,-31.1219 1001.02,-37.3452"/>
<text text-anchor="middle" x="964.5" y="-58.3" font-family="Times New Roman,serif" font-size="14.00">1</text>
</g>
<!-- doHome -->
<g id="node8" class="node"><title>doHome</title>
<text text-anchor="middle" x="976" y="-102.3" font-family="Times New Roman,serif" font-size="14.00">doHome</text>
</g>
<!-- doHome&#45;&gt;$ -->
<g id="edge16" class="edge"><title>doHome&#45;&gt;$</title>
<path fill="none" stroke="black" d="M986.725,-87.5966C994.516,-74.9544 1005.17,-57.6711 1013.83,-43.6161"/>
<polygon fill="black" stroke="black" points="1016.92,-45.2768 1019.18,-34.9273 1010.96,-41.6042 1016.92,-45.2768"/>
<text text-anchor="middle" x="1011.5" y="-58.3" font-family="Times New Roman,serif" font-size="14.00">1</text>
</g>
<!-- doShoppingCart -->
<g id="node9" class="node"><title>doShoppingCart</title>
<text text-anchor="middle" x="1082" y="-102.3" font-family="Times New Roman,serif" font-size="14.00">doShoppingCart</text>
</g>
<!-- doShoppingCart&#45;&gt;$ -->
<g id="edge18" class="edge"><title>doShoppingCart&#45;&gt;$</title>
<path fill="none" stroke="black" d="M1071.27,-87.5966C1063.48,-74.9544 1052.83,-57.6711 1044.17,-43.6161"/>
<polygon fill="black" stroke="black" points="1047.04,-41.6042 1038.82,-34.9273 1041.08,-45.2768 1047.04,-41.6042"/>
<text text-anchor="middle" x="1064.5" y="-58.3" font-family="Times New Roman,serif" font-size="14.00">1</text>
</g>
<!-- doClearCart -->
<g id="node10" class="node"><title>doClearCart</title>
<text text-anchor="middle" x="1198" y="-102.3" font-family="Times New Roman,serif" font-size="14.00">doClearCart</text>
</g>
<!-- doClearCart&#45;&gt;$ -->
<g id="edge20" class="edge"><title>doClearCart&#45;&gt;$</title>
<path fill="none" stroke="black" d="M1164.21,-87.8033C1133.44,-72.1456 1088.43,-49.2446 1058.93,-34.2328"/>
<polygon fill="black" stroke="black" points="1060.44,-31.0712 1049.94,-29.6552 1057.26,-37.3099 1060.44,-31.0712"/>
<text text-anchor="middle" x="1132.5" y="-58.3" font-family="Times New Roman,serif" font-size="14.00">1</text>
</g>
<!-- doPurchase -->
<g id="node11" class="node"><title>doPurchase</title>
<text text-anchor="middle" x="1300" y="-102.3" font-family="Times New Roman,serif" font-size="14.00">doPurchase</text>
</g>
<!-- doPurchase&#45;&gt;$ -->
<g id="edge22" class="edge"><title>doPurchase&#45;&gt;$</title>
<path fill="none" stroke="black" d="M1258.55,-91.1141C1255.32,-90.0535 1252.11,-89.0053 1249,-88 1183.24,-66.7299 1106.11,-42.7643 1062.86,-29.4145"/>
<polygon fill="black" stroke="black" points="1063.72,-26.0177 1053.13,-26.4153 1061.66,-32.7068 1063.72,-26.0177"/>
<text text-anchor="middle" x="1192.5" y="-58.3" font-family="Times New Roman,serif" font-size="14.00">1</text>
</g>
<!-- doInventory -->
<g id="node12" class="node"><title>doInventory</title>
<text text-anchor="middle" x="1402" y="-102.3" font-family="Times New Roman,serif" font-size="14.00">doInventory</text>
</g>
<!-- doInventory&#45;&gt;$ -->
<g id="edge24" class="edge"><title>doInventory&#45;&gt;$</title>
<path fill="none" stroke="black" d="M1359.53,-90.7592C1356.32,-89.7907 1353.11,-88.8596 1350,-88 1247.89,-59.8018 1124.87,-36.1816 1065.11,-25.3529"/>
<polygon fill="black" stroke="black" points="1065.51,-21.8687 1055.04,-23.5425 1064.27,-28.7581 1065.51,-21.8687"/>
<text text-anchor="middle" x="1275.5" y="-58.3" font-family="Times New Roman,serif" font-size="14.00">1</text>
</g>
<!-- doSell -->
<g id="node13" class="node"><title>doSell</title>
<text text-anchor="middle" x="1490" y="-102.3" font-family="Times New Roman,serif" font-size="14.00">doSell</text>
</g>
<!-- doSell&#45;&gt;$ -->
<g id="edge26" class="edge"><title>doSell&#45;&gt;$</title>
<path fill="none" stroke="black" d="M1462.81,-91.6448C1459.55,-90.301 1456.23,-89.0482 1453,-88 1314.74,-43.0954 1141.22,-26.5704 1066.29,-21.2409"/>
<polygon fill="black" stroke="black" points="1066.18,-17.7253 1055.96,-20.5338 1065.7,-24.709 1066.18,-17.7253"/>
<text text-anchor="middle" x="1389.5" y="-58.3" font-family="Times New Roman,serif" font-size="14.00">1</text>
</g>
<!-- doLogout -->
<g id="node14" class="node"><title>doLogout</title>
<text text-anchor="middle" x="1571" y="-102.3" font-family="Times New Roman,serif" font-size="14.00">doLogout</text>
</g>
<!-- doLogout&#45;&gt;$ -->
<g id="edge28" class="edge"><title>doLogout&#45;&gt;$</title>
<path fill="none" stroke="black" d="M1534.76,-90.9426C1531.81,-89.9099 1528.86,-88.9156 1526,-88 1469.53,-69.9435 1455.37,-64.3969 1397,-54 1277.05,-32.6356 1132.63,-23.7101 1065.99,-20.5238"/>
<polygon fill="black" stroke="black" points="1066.13,-17.0266 1055.98,-20.0607 1065.81,-24.0192 1066.13,-17.0266"/>
<text text-anchor="middle" x="1472.5" y="-58.3" font-family="Times New Roman,serif" font-size="14.00">1</text>
</g>
<!-- doCancelOrder -->
<g id="node15" class="node"><title>doCancelOrder</title>
<text text-anchor="middle" x="1677" y="-102.3" font-family="Times New Roman,serif" font-size="14.00">doCancelOrder</text>
</g>
<!-- doCancelOrder&#45;&gt;$ -->
<g id="edge30" class="edge"><title>doCancelOrder&#45;&gt;$</title>
<path fill="none" stroke="black" d="M1625.71,-88.9455C1586.27,-77.282 1530.21,-62.1661 1480,-54 1327.86,-29.2583 1143.91,-21.8816 1066.35,-19.7862"/>
<polygon fill="black" stroke="black" points="1066.22,-16.2817 1056.13,-19.5244 1066.04,-23.2794 1066.22,-16.2817"/>
<text text-anchor="middle" x="1555.5" y="-58.3" font-family="Times New Roman,serif" font-size="14.00">1</text>
</g>
<!-- doRemoveFromShoppingCart -->
<g id="node16" class="node"><title>doRemoveFromShoppingCart</title>
<text text-anchor="middle" x="1840" y="-102.3" font-family="Times New Roman,serif" font-size="14.00">doRemoveFromShoppingCart</text>
</g>
<!-- doRemoveFromShoppingCart&#45;&gt;$ -->
<g id="edge32" class="edge"><title>doRemoveFromShoppingCart&#45;&gt;$</title>
<path fill="none" stroke="black" d="M1761.28,-87.9757C1706.04,-76.6536 1630.33,-62.3755 1563,-54 1377.36,-30.9067 1153.39,-22.4885 1066.23,-19.9468"/>
<polygon fill="black" stroke="black" points="1066.15,-16.4431 1056.06,-19.6588 1065.95,-23.4403 1066.15,-16.4431"/>
<text text-anchor="middle" x="1666.5" y="-58.3" font-family="Times New Roman,serif" font-size="14.00">1</text>
</g>
</g>
</svg>
